<svg width="10" height="10" viewBox="0 0 10 10" fill="none" xmlns="http://www.w3.org/2000/svg">
<path fill-rule="evenodd" clip-rule="evenodd" d="M1.02594 1.02601C1.28287 0.769082 1.69942 0.769082 1.95635 1.02601L4.99992 4.06958L8.04349 1.02601C8.30041 0.769082 8.71697 0.769082 8.97389 1.02601C9.23082 1.28293 9.23082 1.69949 8.97389 1.95641L5.93032 4.99998L8.97389 8.04355C9.23082 8.30047 9.23082 8.71703 8.97389 8.97395C8.71697 9.23088 8.30041 9.23088 8.04349 8.97395L4.99992 5.93038L1.95635 8.97395C1.69942 9.23088 1.28287 9.23088 1.02594 8.97395C0.769021 8.71703 0.769021 8.30047 1.02594 8.04355L4.06951 4.99998L1.02594 1.95641C0.769021 1.69949 0.769021 1.28293 1.02594 1.02601Z" fill="#2A295C"/>
</svg>
