<svg width="107" height="34" viewBox="0 0 107 34" fill="none" xmlns="http://www.w3.org/2000/svg">
<path d="M91.9283 9.47196C91.4934 11.019 91.0411 12.566 90.5888 14.113C91.7544 12.9957 92.9721 11.9128 94.1725 10.8299C94.9727 11.9472 95.7381 13.0817 96.5731 14.1818C96.6601 12.6519 96.7645 11.1221 96.8167 9.60948C98.2606 9.48915 99.7045 9.4204 101.148 9.26569C100.087 8.42343 99.0086 7.61554 97.9301 6.77328C98.9216 5.50128 99.9132 4.22929 100.94 2.99168C99.4783 3.40422 98.0692 3.97146 96.6253 4.45275C96.4166 2.97449 96.2078 1.51342 96.0165 0.0351562C95.2858 1.47904 94.6074 2.94011 93.8941 4.38399C92.659 3.78238 91.3891 3.2667 90.1539 2.66509C90.6932 3.98865 91.2673 5.29502 91.824 6.61857C90.4671 7.39208 89.0927 8.16559 87.7358 8.92191C89.1275 9.11099 90.5366 9.30007 91.9283 9.47196Z" fill="white" stroke="white" stroke-width="0.09375" stroke-miterlimit="10"/>
<path d="M52.9977 12.961C52.6324 14.8346 52.2497 16.7254 51.8844 18.6162C48.8922 18.5302 45.7435 18.324 42.9427 19.5788C40.5942 20.5413 38.698 22.5697 38.0369 25.0105C37.4107 27.0044 37.4803 29.3593 38.8198 31.0611C40.1245 32.6768 42.2468 33.3472 44.2648 33.4503C46.5437 33.5535 48.9966 33.2097 50.858 31.8174C52.615 30.5454 53.5892 28.4483 54.0067 26.3856C54.8939 21.8305 55.7637 17.2754 56.6335 12.7031C55.4332 12.7891 54.2155 12.8578 52.9977 12.961ZM50.1621 26.5231C49.9534 27.6748 49.5185 28.8609 48.6139 29.6516C47.5005 30.6657 45.8826 30.8892 44.4388 30.7173C43.4298 30.6313 42.3512 30.15 41.8815 29.2046C41.3074 28.1217 41.4988 26.8325 41.7945 25.6981C42.1946 24.0995 43.2036 22.604 44.7171 21.8477C46.7351 20.8164 49.0836 20.8336 51.2929 21.0742C50.8928 22.8962 50.5448 24.7183 50.1621 26.5231Z" fill="white" stroke="white" stroke-width="0.09375" stroke-miterlimit="10"/>
<path d="M90.5725 14.0605C87.4586 17.6874 84.1533 21.194 80.4827 24.288C79.7346 25.0272 78.8822 25.6632 78.082 26.3335C75.3508 28.5337 72.4282 30.4761 69.3839 32.2294L69.2969 32.2981C73.1588 32.2638 76.9164 30.8886 80.1 28.7572C81.0742 28.1728 81.8744 27.3649 82.7442 26.6773C86.4322 23.2739 89.1634 18.8563 90.5725 14.0605Z" fill="#DA2020" stroke="#DA2020" stroke-width="0.09375" stroke-miterlimit="10"/>
<path d="M33.5475 19.7847C31.7383 18.7362 29.529 18.5815 27.4936 18.7878C24.745 19.0628 22.0486 20.3176 20.2742 22.449C18.8477 24.1851 18.0648 26.4713 18.291 28.7059C18.4476 30.2873 19.4217 31.7311 20.7961 32.5218C22.5705 33.5704 24.7102 33.7251 26.7108 33.5704C29.7551 33.3125 32.7821 31.8343 34.5391 29.3075C35.7047 27.623 36.3483 25.4915 36.07 23.446C35.8612 21.9162 34.887 20.541 33.5475 19.7847ZM32.1036 25.1821C31.9471 26.4541 31.4774 27.7261 30.6597 28.7402C29.529 30.1841 27.6676 31.0608 25.8236 30.992C24.8146 30.992 23.736 30.7514 23.0228 30.0122C22.5183 29.4966 22.2747 28.7918 22.2399 28.0871C22.1182 25.1305 24.1013 22.0365 27.1283 21.3489C28.4504 21.0395 29.9813 21.1599 31.0599 22.0365C31.9471 22.81 32.2428 24.0648 32.1036 25.1821Z" fill="white" stroke="white" stroke-width="0.09375" stroke-miterlimit="10"/>
<path d="M61.5527 31.3195C60.0393 30.4944 59.3086 28.7239 59.4826 27.0738C62.4921 27.6067 65.693 27.727 68.5982 26.6441C69.816 26.1628 71.0163 25.3893 71.6252 24.2032C72.2862 22.8453 72.1297 21.006 70.9293 19.9747C69.729 18.9605 68.0589 18.7199 66.5281 18.6855C63.6229 18.6168 60.5786 19.459 58.4562 21.4873C56.7862 23 55.7946 25.183 55.6902 27.4176C55.5684 28.8099 55.9338 30.2538 56.8384 31.3367C57.9343 32.7634 59.7087 33.5541 61.4658 33.8291C64.1448 34.276 67.0326 33.8291 69.2941 32.2993L69.3811 32.2305C66.7716 32.5055 63.936 32.5743 61.5527 31.3195ZM63.1706 21.5217C64.4057 20.9717 65.8496 20.7482 67.1891 21.092C67.8154 21.2467 68.3895 21.7624 68.4243 22.4499C68.5808 23.5328 67.624 24.3751 66.6846 24.7017C64.5275 25.4064 62.1964 25.2346 60.0045 24.8736C60.6307 23.4469 61.7267 22.1749 63.1706 21.5217Z" fill="white" stroke="white" stroke-width="0.09375" stroke-miterlimit="10"/>
<path d="M106.906 23.2566C106.628 21.5893 105.41 20.1454 103.862 19.4578C101.914 18.5468 99.6869 18.4953 97.5994 18.7875C94.5377 19.2344 91.6151 20.9705 90.0494 23.652C89.0752 25.3537 88.5707 27.382 88.9709 29.3244C89.284 30.9058 90.4495 32.2465 91.9282 32.9341C93.8418 33.8279 96.0337 33.9311 98.1039 33.656C101.044 33.2435 103.914 31.6793 105.532 29.1869C106.663 27.4508 107.272 25.3021 106.906 23.2566ZM99.0085 30.6651C97.6342 31.2152 96.0337 31.3011 94.642 30.7511C93.6852 30.3901 93.0068 29.4447 92.9198 28.4305C92.6415 25.3193 94.729 22.0018 97.9125 21.3143C99.1651 21.0392 100.609 21.108 101.67 21.8815C102.505 22.4831 102.923 23.4973 102.94 24.4942C102.975 27.0554 101.461 29.6853 99.0085 30.6651Z" fill="white" stroke="white" stroke-width="0.09375" stroke-miterlimit="10"/>
<path d="M9.99173 21.5386C12.5664 20.9541 15.2454 21.126 17.8374 21.3151C18.0636 20.6275 18.3245 19.9572 18.5855 19.2696C16.7937 18.9602 14.9497 18.8399 13.1231 18.8571C11.4704 18.8399 9.80037 19.0118 8.19992 19.4415C7.06916 19.7509 5.99059 20.2494 5.08599 21.0229C4.04221 21.9511 3.55512 23.5153 4.077 24.8389C4.35534 25.5952 5.08599 26.0937 5.83403 26.3687C7.55626 27.0047 9.43505 26.8844 11.1921 27.4172C11.8531 27.6063 12.5316 28.2079 12.3228 28.9642C12.1315 30.1159 10.9485 30.666 9.90475 30.8894C7.13875 31.4567 4.30315 31.0269 1.53715 30.6832C1.36319 31.4051 1.15443 32.127 0.980469 32.849C4.18138 33.6569 7.57365 33.9319 10.8615 33.4162C12.4446 33.124 14.1146 32.5911 15.2454 31.3879C16.237 30.3394 16.6371 28.8095 16.411 27.4172C16.2718 26.5234 15.5759 25.8186 14.7583 25.4577C13.0187 24.6498 11.0355 24.7185 9.1915 24.2201C8.60003 24.0482 7.95637 23.6528 7.99116 22.9653C8.19992 22.0542 9.2089 21.7448 9.99173 21.5386Z" fill="white" stroke="white" stroke-width="0.09375" stroke-miterlimit="10"/>
<path d="M80.5687 24.2032C79.003 22.5015 77.5069 20.7138 76.1152 18.8574C74.9845 18.8746 73.8363 18.8574 72.7056 18.8574C74.3408 21.453 76.1326 23.9626 78.081 26.3347C78.8812 25.6643 79.7337 25.0283 80.4817 24.2892L80.5687 24.2032Z" fill="white" stroke="white" stroke-width="0.09375" stroke-miterlimit="10"/>
<path d="M80.0986 28.7576C81.212 30.1156 82.4297 31.3875 83.6823 32.6423C84.0128 32.9518 84.2737 33.3127 84.6738 33.5534C86.1873 33.5877 87.7182 33.5362 89.2317 33.5706C87.0571 31.2844 84.8826 28.9983 82.7429 26.6777C81.873 27.3653 81.0728 28.1732 80.0986 28.7576Z" fill="white" stroke="white" stroke-width="0.09375" stroke-miterlimit="10"/>
</svg>
