<svg width="46" height="42" viewBox="0 0 46 42" fill="none" xmlns="http://www.w3.org/2000/svg">
<path d="M7.39614 34.8752C5.75256 34.8752 4.36801 34.4017 3.24251 33.4549C2.13488 32.508 1.39348 31.1682 1.01831 29.4352L2.89414 28.9797C3.59088 31.8202 5.09155 33.2405 7.39614 33.2405C8.68243 33.2405 9.67394 32.9368 10.3707 32.3294C11.0853 31.7041 11.4426 30.8198 11.4426 29.6764C11.4426 28.9797 11.2639 28.3991 10.9066 27.9346C10.5493 27.4522 10.0759 27.0413 9.48636 26.7019C8.91468 26.3625 8.28047 26.0498 7.58373 25.764C6.88699 25.4603 6.18132 25.1387 5.46671 24.7993C4.76998 24.4598 4.12683 24.0668 3.53729 23.6202C2.9656 23.1557 2.50111 22.6019 2.14381 21.9587C1.78651 21.2977 1.60786 20.4848 1.60786 19.5201C1.60786 18.0016 2.14381 16.7957 3.21571 15.9025C4.28762 15.0092 5.72576 14.5626 7.53013 14.5626C8.42339 14.5626 9.30771 14.6698 10.1831 14.8841C11.0764 15.0807 12.0232 15.4112 13.0236 15.8757L12.3537 17.4835C10.6387 16.626 9.0308 16.1972 7.53013 16.1972C6.3689 16.1972 5.44885 16.5009 4.76998 17.1083C4.0911 17.6979 3.75167 18.5018 3.75167 19.5201C3.75167 20.2526 3.93032 20.8689 4.28762 21.3692C4.64492 21.8515 5.10941 22.2714 5.6811 22.6287C6.27064 22.986 6.91379 23.3165 7.61052 23.6202C8.32513 23.906 9.0308 24.2097 9.72754 24.5313C10.4243 24.8529 11.0585 25.237 11.6302 25.6836C12.2197 26.1302 12.6931 26.6751 13.0504 27.3182C13.4077 27.9614 13.5864 28.7474 13.5864 29.6764C13.5864 31.2664 13.0326 32.5348 11.9249 33.4817C10.8173 34.4107 9.30771 34.8752 7.39614 34.8752ZM16.5588 34.5V33.1065L18.2203 32.9189V16.5456L16.5588 16.3312V14.9377H23.6334C25.7058 14.9377 27.269 15.4558 28.323 16.492C29.377 17.5103 29.9041 19.011 29.9041 20.994C29.9041 22.9949 29.3681 24.5224 28.2962 25.5764C27.2422 26.6304 25.6879 27.1575 23.6334 27.1575H22.0523V25.4692H23.6334C26.4204 25.4692 27.8138 23.9775 27.8138 20.994C27.8138 17.9391 26.4204 16.4116 23.6334 16.4116H20.3641V32.9189L22.6955 33.1333V34.5H16.5588Z" fill="white"/>
<path d="M1.28703 37.3723C2.23456 37.3717 2.82445 37.043 3.65609 36.8582C5.53916 36.4424 8.03443 36.1436 9.98633 35.8856C11.4649 35.6888 12.9596 35.4974 14.4301 35.3267C14.5053 35.318 14.5479 35.2913 14.582 35.2873C14.9021 35.2501 15.453 35.2125 15.7669 35.1777C16.4358 35.1025 17.6093 34.993 18.2236 34.9171C18.4849 34.8845 18.7556 34.8569 18.8514 34.7958C18.9465 34.7847 19.0028 34.8274 19.0279 34.8278C19.0282 34.8277 19.0285 34.8277 19.0287 34.8276C19.1096 34.8285 19.3097 34.7779 19.3547 34.7761C19.3614 34.7759 19.3231 34.8136 19.4309 34.794C19.4406 34.7923 19.4296 34.7698 19.5212 34.7616C19.545 34.7595 19.8546 34.7693 19.9426 34.7642C20.2361 34.7467 20.9286 34.6629 21.2775 34.6369C21.3308 34.6328 21.3626 34.644 21.4189 34.64C21.448 34.6379 21.4905 34.6198 21.4995 34.6192C21.5388 34.6167 21.7153 34.671 21.6438 34.5431C21.8235 34.5381 21.774 34.5859 21.7802 34.614C21.9749 34.6037 22.0642 34.5345 22.1197 34.5969C23.0738 34.5193 24.0298 34.4482 24.9847 34.3844C24.9856 34.3952 24.9865 34.4059 24.9875 34.4167C25.2664 34.3572 25.3664 34.4248 25.524 34.3532C25.6243 34.3615 25.7245 34.3698 25.8246 34.3782C28.3715 34.1986 30.9206 34.1631 33.4305 34.1584C33.5362 34.1583 33.5591 34.1352 33.7376 34.1352C33.9334 34.1352 34.207 34.163 34.4608 34.1647C34.6852 34.1662 35.0053 34.1482 35.2583 34.149C35.3152 34.1492 35.3561 34.1645 35.3625 34.1645C35.4001 34.1646 35.4024 34.1416 35.4388 34.1416C35.4824 34.1417 35.5347 34.1597 35.5848 34.1597C35.7724 34.1596 35.9744 34.1704 35.9978 34.1706C36.1109 34.1712 36.1362 34.1493 36.1455 34.1493C36.2707 34.1499 36.2232 34.169 36.2544 34.1687C36.4175 34.167 36.5249 34.1193 36.7537 34.1757C36.7481 34.1567 36.7426 34.1376 36.737 34.1186C36.9108 34.1139 36.7945 34.1601 36.8296 34.1703C36.8445 34.174 37.2149 34.1817 37.2427 34.1822C37.3415 34.1829 37.3451 34.1581 37.3536 34.1581C37.3746 34.1581 37.6201 34.1971 37.7461 34.1813C37.8954 34.1625 37.7236 34.1032 37.7608 34.0954C37.7672 34.0941 37.9218 34.1068 37.9432 34.092C37.967 34.076 37.8333 34.0697 37.8356 34.0626C37.8376 34.0577 38.0605 34.0335 38.0201 34.0076C37.9866 33.9818 37.6836 33.9977 37.619 33.9837C37.6085 33.9814 37.6299 33.9529 37.6205 33.9514C37.5848 33.9449 36.8737 33.9156 36.8387 33.9201C36.8757 33.9348 36.9126 33.9495 36.9495 33.9643C36.8998 33.9639 36.85 33.9635 36.8001 33.9631C36.8706 33.9763 36.9409 33.9896 37.0109 34.003C36.903 34.1094 36.5879 33.9868 36.578 33.9314C36.5714 33.9056 36.7691 33.8463 36.5897 33.8022C36.6162 33.7965 36.6449 33.7909 36.6726 33.7852C36.7291 33.7979 36.7855 33.8105 36.8417 33.8233C36.8038 33.8287 36.7658 33.8342 36.7278 33.8397C36.7414 33.8479 36.7551 33.856 36.7687 33.8642C36.8743 33.88 36.9792 33.8961 37.0837 33.9124C37.1378 33.9088 37.1275 33.8857 37.1646 33.8828C37.6266 33.8464 37.3244 33.9041 37.6235 33.9071C37.6666 33.8969 37.7095 33.8867 37.7524 33.8765C37.7353 33.9261 37.8676 33.9006 38.0248 33.9304C38.0058 33.9131 37.9885 33.8959 37.9703 33.8787C38.2056 33.8987 38.6885 33.8451 38.5541 33.9272C38.6082 33.9228 38.6621 33.9184 38.7159 33.914C38.76 33.9315 38.8039 33.949 38.8477 33.9665C38.9097 33.9688 38.9714 33.9712 39.0329 33.9737C39.0337 33.9658 39.0345 33.9579 39.0353 33.95C38.9864 33.9466 38.9373 33.9433 38.888 33.94C38.9265 33.9183 38.9651 33.8965 39.0035 33.8748C39.0395 33.8812 39.0754 33.8877 39.1112 33.8942C38.9581 33.9067 39.1554 33.9577 39.2009 33.9931C39.3259 34.0138 39.4122 33.9786 39.4573 33.9801C39.4787 33.9807 39.7168 34.0728 39.6275 33.985C39.7523 34.0047 39.8758 34.0246 39.9982 34.045C40.0469 34.043 40.0955 34.041 40.1439 34.0391C40.0432 33.9925 40.3484 33.9744 40.1279 33.9391C39.9626 33.9128 39.9178 33.9444 39.8381 33.9375C39.7661 33.9314 39.7298 33.9048 39.6508 33.8975C39.115 33.8489 38.7107 33.8274 38.1978 33.8099C38.0975 33.8066 38.0052 33.7903 37.9416 33.7887C37.8681 33.787 37.9587 33.8211 37.8654 33.8093C37.7674 33.7969 37.747 33.7718 37.7209 33.7701C37.7047 33.769 37.6521 33.7884 37.6046 33.7862C37.4094 33.7773 37.1198 33.7449 37.0913 33.744C37.0611 33.7426 36.49 33.7428 36.4693 33.7463C36.4552 33.7478 36.482 33.8289 36.363 33.7398C36.3251 33.7371 36.2871 33.7344 36.2491 33.7318C36.2548 33.748 36.2606 33.7642 36.2663 33.7805C36.0422 33.7136 36.1191 33.7496 35.9003 33.7395C35.3694 33.7151 34.6011 33.7183 34.0216 33.7109C33.8921 33.7092 33.8427 33.6898 33.6886 33.6883C33.5451 33.6868 33.1825 33.7451 33.2611 33.6655C32.9489 33.7354 32.8972 33.6174 32.7402 33.6925C32.721 33.6818 32.7018 33.6712 32.6826 33.6606C32.5116 33.7082 32.4582 33.6681 32.2699 33.6647C32.1886 33.6632 32.2829 33.7111 32.1181 33.6585C32.0869 33.663 32.055 33.6674 32.0245 33.6719C32.0318 33.6837 32.0389 33.6955 32.0465 33.7073C31.8677 33.7 31.8563 33.7065 31.876 33.6617C31.7898 33.671 31.7035 33.6805 31.617 33.69C31.606 33.6756 31.595 33.6612 31.584 33.6467C31.6202 33.6147 33.6021 33.6383 33.8774 33.657C34.2047 33.6242 34.8503 33.6714 35.1057 33.6678C35.2096 33.6662 35.2586 33.6339 35.4119 33.6326C35.5655 33.6313 35.7566 33.6654 35.8373 33.6683C36.1047 33.6758 37.3775 33.7116 36.5099 33.6422C36.5349 33.6269 36.5599 33.6115 36.5849 33.5962C36.9317 33.6625 36.8076 33.6245 37.096 33.6294C37.2176 33.6314 37.5013 33.6794 37.4883 33.6057C37.2667 33.5825 37.0269 33.5967 36.8297 33.5888C36.8106 33.588 36.5757 33.5468 36.4614 33.5525C36.3557 33.5577 36.4268 33.6293 36.1986 33.5448C36.0252 33.6166 35.927 33.5451 35.8815 33.5366C35.8029 33.522 35.7934 33.5596 35.7141 33.5623C35.6278 33.5653 35.5687 33.5391 35.5568 33.5387C35.4363 33.5352 34.8221 33.5229 34.7959 33.5382C34.8203 33.5452 34.8447 33.5522 34.869 33.5592C34.7111 33.5681 34.7444 33.5299 34.7028 33.5249C34.6718 33.5247 34.6408 33.5245 34.6097 33.5244C34.622 33.5325 34.6342 33.5406 34.6464 33.5487C34.4589 33.5453 34.6031 33.5186 34.3359 33.5174C34.166 33.5167 33.9892 33.5466 33.9726 33.5443C33.9677 33.5436 34.0216 33.5232 33.9518 33.5202C33.8364 33.5153 33.6356 33.5156 33.6131 33.5437C33.5576 33.5397 33.5624 33.5123 33.555 33.5117C33.5235 33.5087 32.967 33.5011 32.8658 33.5005C32.5882 33.4978 32.2741 33.5068 31.9717 33.5064C31.941 33.5064 31.9608 33.5237 31.9301 33.5236C31.8808 33.5233 31.6261 33.4997 31.5878 33.4984C31.4928 33.4952 31.2421 33.5108 31.2023 33.5036C31.1967 33.5026 31.279 33.4772 31.1821 33.4718C31.0745 33.4658 31.133 33.4966 31.1271 33.497C30.9086 33.5124 30.7693 33.4934 30.6189 33.4927C30.5702 33.4925 30.4805 33.5188 30.412 33.5134C30.4042 33.5128 30.419 33.4902 30.4114 33.4893C30.3089 33.4802 30.2142 33.524 30.1699 33.5279C30.0617 33.5374 30.1199 33.5053 30.1142 33.5053C30.0419 33.5063 29.9448 33.52 29.8345 33.5218C29.3444 33.5299 28.9323 33.542 28.4145 33.564C28.349 33.5667 28.2719 33.5913 28.2619 33.5917C28.2309 33.5928 28.2388 33.5672 28.149 33.5714C27.9598 33.5803 27.7839 33.5865 27.5957 33.5951C27.5578 33.5969 27.5427 33.621 27.5138 33.6228C27.4172 33.6284 27.0826 33.5824 27.0815 33.6588C26.8874 33.6004 26.7631 33.6646 26.6091 33.6716C26.2446 33.6879 25.6693 33.7047 25.3056 33.7342C25.2292 33.7404 25.1944 33.7619 25.1519 33.7654C25.0757 33.7716 24.638 33.7865 24.6152 33.7911C24.5706 33.7997 24.6028 33.8838 24.3673 33.8232C24.2315 33.8262 24.2497 33.8605 24.2218 33.8641C24.0044 33.8918 23.7867 33.8269 23.8311 33.8964C23.5756 33.8932 23.4087 33.8644 23.3095 33.9386C23.3087 33.9057 23.1879 33.8939 23.0448 33.9162C23.1959 33.9615 23.1801 33.9978 23.5356 33.9641C23.5412 33.9636 23.529 33.9405 23.5346 33.94C23.5854 33.9351 23.6921 33.9401 23.7789 33.9332C23.8657 33.9264 23.8164 33.9132 23.8512 33.9113C23.8831 33.9096 23.8835 33.9324 23.9296 33.9298C24.0791 33.9211 24.2117 33.9192 24.2967 33.9143C24.3502 33.9112 24.4089 33.8876 24.4504 33.885C24.611 33.8753 24.952 33.8707 25.1557 33.8569C25.1982 33.8539 25.1791 33.8325 25.2719 33.8254C25.2828 33.8245 25.3237 33.8457 25.4053 33.846C25.4869 33.8463 25.55 33.8311 25.6026 33.8307C25.6467 33.8303 25.6295 33.852 25.7195 33.8484C25.795 33.8449 26.6422 33.7862 26.6875 33.7811C26.7533 33.7731 26.7833 33.7424 26.8238 33.744C26.8309 33.7444 26.8443 33.7721 26.869 33.7729C27.2749 33.7863 28.1788 33.7087 28.6392 33.6924C29.6154 33.6566 30.5062 33.6478 31.489 33.6369C31.5065 33.6415 31.524 33.6461 31.5415 33.6507C31.4429 33.6526 31.3441 33.6546 31.2451 33.6567C31.2447 33.67 31.2443 33.6833 31.244 33.6966C31.1102 33.7013 31.1272 33.6696 31.1306 33.6505C31.0811 33.6596 31.0317 33.6687 30.9821 33.6778C30.9384 33.6323 30.6069 33.6706 30.4347 33.675C30.3248 33.6778 30.1935 33.6636 30.1354 33.6666C30.0127 33.6728 30.0167 33.7013 30.0071 33.7021C29.9907 33.7032 29.8184 33.6829 29.6942 33.6877C29.5105 33.6947 29.4922 33.7391 29.2387 33.7102C28.9147 33.7438 28.5586 33.7454 28.2123 33.7555C28.2799 33.7934 27.9677 33.7675 27.8271 33.7742C26.9656 33.8142 25.92 33.8845 25.0525 33.9511C24.9413 33.9596 24.8586 33.9884 24.7965 33.9913C24.7629 33.9929 24.7465 33.9657 24.7 33.9722C24.6919 33.9734 24.6877 34 24.601 34.0092C24.3852 34.032 23.8424 34.0222 23.7092 34.0817C22.9689 34.1219 22.2292 34.1662 21.4879 34.2145C21.4702 34.2266 21.4524 34.2388 21.4346 34.2509C21.2898 34.2066 20.737 34.282 20.4668 34.3013C19.9892 34.335 19.3785 34.3694 18.9625 34.404C18.872 34.4115 18.7993 34.4336 18.7139 34.4408C18.6773 34.4439 18.6289 34.4279 18.5904 34.4312C18.1564 34.4682 17.574 34.543 17.142 34.584C16.1503 34.6779 15.2259 34.7754 14.2263 34.8833C10.8606 35.2493 7.52268 35.65 4.22307 36.2244C4.17986 36.2319 4.18598 36.2545 4.15263 36.2604C3.96286 36.294 3.4827 36.3595 3.26382 36.4009C3.08509 36.4343 2.81292 36.5216 2.73645 36.4998C3.36041 36.3259 4.05875 36.2068 4.7212 36.0811C4.76937 36.072 4.77183 36.0492 4.77773 36.0478C4.8872 36.0219 4.82186 36.0635 4.98368 36.0383C5.04391 36.0286 5.51218 35.8815 5.46628 35.9602C5.57058 35.9143 6.41217 35.769 6.56865 35.7555C6.6166 35.7511 6.58606 35.7768 6.59565 35.7764C6.63732 35.7748 6.65159 35.7436 6.68825 35.7373C6.78564 35.7208 7.04085 35.7064 7.08924 35.6991C7.19938 35.6825 7.53134 35.6105 7.68222 35.5945C7.82049 35.5797 7.79824 35.6132 7.91277 35.5997C8.00303 35.589 7.90114 35.5779 8.10158 35.5419C8.20054 35.5241 8.55625 35.4928 8.64331 35.4809C8.72982 35.469 8.82393 35.438 8.94454 35.423C9.12233 35.4007 9.48886 35.3618 9.66316 35.3447C9.67353 35.3437 9.70175 35.3635 9.72719 35.3596C9.77989 35.3517 9.76028 35.3253 9.79984 35.3171C9.83796 35.3089 10.5376 35.2222 10.6594 35.2068C10.7406 35.1964 10.7974 35.2065 10.842 35.2008C10.8768 35.1963 10.8776 35.172 10.9132 35.1673C10.9242 35.1659 11.0207 35.1748 11.1149 35.1627C11.2034 35.1511 11.5411 35.0897 11.5809 35.0848C11.6067 35.0816 11.5805 35.1019 11.6566 35.0923C11.7261 35.0834 11.7692 35.0559 11.8089 35.0508C11.901 35.039 12.0066 35.0454 12.105 35.0337C12.3858 35.0006 12.3651 34.9756 12.3823 34.9726C12.428 34.9648 12.4494 34.9876 12.4646 34.9863C12.5286 34.9809 12.6859 34.9672 12.7433 34.9616C12.8147 34.9545 12.8421 34.9273 12.918 34.9185C12.9746 34.912 13.0916 34.922 13.2214 34.9084C13.5143 34.8778 13.865 34.8432 14.1472 34.8114C14.232 34.8019 14.2427 34.7789 14.2687 34.7755C14.4049 34.7577 14.4843 34.7736 14.5233 34.7691C14.8005 34.737 15.3029 34.6458 15.5579 34.6164C15.6624 34.6043 16.1246 34.5751 16.3859 34.5461C16.4157 34.5429 16.386 34.5286 16.4196 34.528C16.4998 34.5265 16.4959 34.5619 16.5362 34.5568C16.5556 34.5543 16.5982 34.5304 16.6549 34.5229C16.9496 34.4839 17.1525 34.4799 17.2856 34.4662C18.5696 34.3339 19.8855 34.2117 21.0874 34.1155C21.2216 34.1048 21.3896 34.1127 21.5908 34.0774C21.5963 34.0661 21.6017 34.0549 21.6071 34.0436C21.615 34.0537 21.6229 34.0637 21.6308 34.0738C21.8609 34.0624 21.949 34.0696 22.1823 34.0391C22.2024 34.0365 22.2605 33.9828 22.303 34.0412C22.532 33.9803 22.4078 34.034 22.5805 34.026C22.7531 34.0179 22.9197 33.9927 23.0866 33.9783C23.1768 33.9501 22.7888 33.9259 22.7637 33.9279C22.7234 33.9309 22.6835 33.9642 22.6448 33.9685C22.53 33.9814 22.4169 33.9653 22.393 33.9942C22.2421 33.9762 22.4284 33.9773 22.408 33.9528C22.3094 33.9705 22.2109 33.9884 22.1123 34.0063C22.0554 33.9219 21.5143 34.0773 21.5476 34.0077C21.5049 34.0244 21.4623 34.0411 21.4196 34.0578C21.2217 33.9885 21.1136 34.0562 20.8605 34.1012C20.8781 34.089 20.8956 34.0768 20.9132 34.0646C20.9076 34.0605 20.6812 34.0612 20.7652 34.1005C20.5298 34.0586 20.5476 34.158 20.335 34.1023C20.2109 34.103 20.2885 34.139 20.0677 34.1564C19.9369 34.1667 19.773 34.1582 19.627 34.169C19.5934 34.1716 19.5808 34.1971 19.551 34.1997C19.5211 34.2022 19.5045 34.1796 19.4683 34.182C19.3934 34.1871 19.2981 34.2121 19.2513 34.2145C19.2094 34.2168 19.1478 34.2009 19.0469 34.2063C18.6946 34.2253 18.8034 34.2461 18.7489 34.2612C18.6904 34.2772 18.6438 34.2414 18.5245 34.2567C18.5125 34.2583 18.5458 34.2802 18.5066 34.2827C18.4751 34.2848 18.4569 34.2593 18.3522 34.2637C18.3102 34.2652 17.6674 34.3184 17.5703 34.3273C17.4203 34.3405 17.0918 34.3946 16.936 34.4096C16.8759 34.4154 16.8096 34.4001 16.7459 34.4064C16.5345 34.4274 16.1975 34.4626 15.9319 34.4906C15.6922 34.5156 15.2804 34.6062 15.1414 34.5775C14.8017 34.6075 14.7243 34.653 14.6988 34.6562C14.6302 34.6649 14.5958 34.644 14.5092 34.6522C13.3954 34.7568 11.909 34.946 10.8578 35.0766C8.3992 35.3812 5.93926 35.7162 3.48713 36.1642C3.47864 36.1547 3.47016 36.1452 3.46168 36.1358C3.75244 36.0763 4.09461 35.9977 4.37152 35.9464C4.74759 35.8764 5.33592 35.8263 5.59442 35.7108C5.48038 35.7223 5.30349 35.7794 5.30081 35.7414C5.49905 35.7067 5.70035 35.672 5.90458 35.6374C5.90118 35.6557 5.89779 35.674 5.8944 35.6923C6.1063 35.6643 6.33707 35.625 6.54355 35.5963C6.57988 35.5912 6.55656 35.6109 6.58818 35.6062C6.62358 35.6009 6.59717 35.5885 6.60378 35.5873C6.6933 35.5737 6.72301 35.5858 6.73392 35.584C6.76202 35.5791 6.7377 35.5669 6.81849 35.5504C6.96849 35.5198 7.0842 35.5447 7.03819 35.4816C7.08745 35.4743 7.13684 35.4671 7.18638 35.4598C7.20194 35.4765 7.21749 35.4933 7.23306 35.51C7.52632 35.3903 7.69459 35.5009 7.84368 35.3729C7.90021 35.3811 7.95687 35.3894 8.01367 35.3977C8.04178 35.3747 8.06995 35.3517 8.09817 35.3288C8.10644 35.3439 8.1147 35.359 8.12296 35.3742C8.41619 35.3209 8.73774 35.2961 9.02771 35.2551C9.2319 35.2262 9.27307 35.2143 9.44817 35.1922C9.83682 35.1436 9.44639 35.1628 9.76574 35.0859C9.75141 35.1077 9.7371 35.1295 9.7228 35.1514C9.77742 35.1515 9.83216 35.1517 9.887 35.1518C9.92244 35.1309 9.95795 35.11 9.99352 35.0891C10.1713 35.1505 10.2717 35.0695 10.2946 35.0666C10.3132 35.0644 10.3828 35.1062 10.5778 35.0384C10.5037 35.1173 10.7299 35.0196 10.7467 35.0171C10.764 35.0146 10.9894 35.0019 11.0807 34.9899C11.1523 34.9806 11.3039 34.9469 11.4117 34.9345C11.5068 34.9235 11.5 34.9479 11.507 34.9473C11.6244 34.9349 11.5488 34.9258 11.6335 34.9146C11.7183 34.9035 11.7868 34.9153 11.805 34.9113C11.8141 34.9093 11.7806 34.8913 11.8227 34.8842C11.9348 34.8649 12.1476 34.8587 12.2733 34.8433C12.3186 34.8378 12.3736 34.8127 12.4241 34.8062C12.5015 34.7963 12.5407 34.8164 12.5857 34.8105C12.6014 34.8083 12.6973 34.7589 12.8232 34.7503C12.8471 34.7487 12.9262 34.8204 13.0065 34.6967C13.0156 34.7118 13.0246 34.7268 13.0336 34.7419C13.4596 34.7332 13.565 34.5908 13.7662 34.6845C14.0675 34.6382 13.8548 34.6165 13.8872 34.606C13.9082 34.5993 14.0085 34.6007 14.0193 34.5988C14.0384 34.5953 14.0335 34.5813 14.0546 34.5791C14.4427 34.5394 14.2736 34.5853 14.3985 34.5891C14.6961 34.5984 14.9158 34.4832 14.408 34.5652C14.4071 34.5572 14.4063 34.5492 14.4054 34.5412C14.5315 34.5353 14.8512 34.4976 14.7401 34.4684C14.6515 34.4451 13.8989 34.548 14.3216 34.4567C14.4177 34.436 14.4712 34.4606 14.6341 34.3862C14.7456 34.3712 14.7694 34.4425 14.9181 34.3971C14.8958 34.4252 14.8735 34.4533 14.8513 34.4814C15.0607 34.4928 15.3157 34.4212 15.4725 34.4195C15.5264 34.4188 15.7314 34.5205 15.6741 34.4037C15.7645 34.402 16.1874 34.3368 16.268 34.3399C16.2874 34.3407 16.3183 34.4027 16.5925 34.353C16.611 34.343 16.6294 34.333 16.6478 34.323C16.3924 34.3243 16.8371 34.2566 16.7097 34.2071C16.6711 34.2387 16.4721 34.2752 16.4412 34.2923C16.3885 34.3216 16.5555 34.3361 16.3458 34.3484C16.204 34.2589 16.5852 34.2689 16.5181 34.1772C16.7974 34.1957 16.821 34.1498 16.8832 34.1419C17.1484 34.1089 17.3135 34.1036 17.5625 34.0688C17.625 34.0831 17.1764 34.1545 17.1201 34.1513C17.3316 34.2027 16.9808 34.2393 16.8243 34.2121C16.8137 34.2347 16.8031 34.2574 16.7926 34.28C16.9887 34.2492 17.1759 34.2253 17.3704 34.2247C17.3821 34.2155 17.3939 34.2063 17.4057 34.1971C17.3614 34.1891 17.317 34.1811 17.2727 34.1731C17.431 34.1382 17.3407 34.2098 17.5492 34.1349C17.558 34.1585 17.5669 34.182 17.5758 34.2055C17.7799 34.1783 17.9845 34.1514 18.1896 34.1247C18.301 34.1632 18.6963 34.1098 18.6181 34.0536C18.7772 34.035 18.5836 34.0858 18.7339 34.0879C18.7993 34.0888 18.9262 34.0795 18.956 34.0599C18.9373 34.0014 18.747 34.0106 18.686 33.9747C18.7191 33.958 19.6068 33.9244 19.5223 33.8616C19.5924 33.8472 19.5629 33.8859 19.6913 33.8844C20.0514 33.8799 20.5999 33.764 20.8942 33.8308C20.5602 33.9071 20.4574 33.8625 20.1973 33.8815C20.0307 33.8931 19.0218 33.9703 19.2525 34.0144C19.2149 34.0095 19.1772 34.0047 19.1396 33.9999C19.1038 34.0219 19.0681 34.0439 19.0324 34.0659C19.1379 34.0595 19.2434 34.0531 19.349 34.0468C19.3725 34.0259 19.3961 34.005 19.4196 33.9841C19.4324 33.9965 19.4451 34.0089 19.4579 34.0213C19.5025 34.0202 19.5471 34.0191 19.5918 34.018C19.5779 34.003 19.5641 33.9879 19.5503 33.9729C19.6185 33.9644 19.6868 33.9559 19.7551 33.9474C19.7384 33.9704 19.7218 33.9934 19.7051 34.0165C20.0283 33.9949 19.9179 33.9906 20.0937 33.9356C20.2273 33.9206 20.0045 33.9803 20.2886 33.9677C20.6179 33.9534 20.397 33.9049 20.8231 33.8853C20.8301 33.8955 20.8371 33.9058 20.844 33.916C20.9366 33.8979 21.0293 33.8799 21.122 33.862C21.1107 33.8763 21.0994 33.8906 21.088 33.9049C21.2806 33.8847 21.5488 33.89 21.6089 33.8329C21.415 33.8728 21.4099 33.7813 21.4596 33.7607C21.5624 33.7168 23.1183 33.6374 23.4195 33.6214C23.8043 33.5989 24.0948 33.551 24.4494 33.5746C24.2131 33.6255 23.3722 33.6494 23.2154 33.6861C23.1999 33.6896 23.21 33.7731 23.1025 33.6857C22.7778 33.7237 22.3866 33.7243 21.9798 33.7568C21.994 33.78 22.0082 33.8033 22.0224 33.8265C22.2687 33.7569 22.5082 33.8533 22.469 33.7618C22.5187 33.7583 22.5685 33.7548 22.6183 33.7513C22.6194 33.7674 22.6206 33.7836 22.6217 33.7997C22.6967 33.7945 22.7718 33.7892 22.8468 33.7841C22.8457 33.7679 22.8446 33.7518 22.8434 33.7356C22.9056 33.7313 22.9678 33.7271 23.0299 33.7228C23.0375 33.7385 23.045 33.7541 23.0526 33.7698C23.2365 33.7234 23.8766 33.7715 23.5915 33.6935C23.6789 33.6878 23.7663 33.6821 23.854 33.6765C23.8544 33.6883 23.8549 33.7002 23.8554 33.712C23.8931 33.7112 23.9308 33.7104 23.9686 33.7096C23.9555 33.6996 23.9424 33.6897 23.9294 33.6798C24.1031 33.688 24.263 33.6216 24.3785 33.6516C24.3043 33.6643 24.2302 33.677 24.156 33.6897C24.2983 33.6654 24.5639 33.6811 24.5875 33.6798C24.6594 33.6756 24.6959 33.6495 24.7737 33.6437C24.8439 33.6385 24.8353 33.6574 24.8484 33.656C25.2262 33.6151 25.0762 33.5242 25.2597 33.6317C25.2776 33.6146 25.2955 33.5975 25.3134 33.5803C25.3392 33.5923 25.365 33.6043 25.3908 33.6163C25.5028 33.6088 25.6154 33.6013 25.7277 33.594C25.6913 33.6161 25.6549 33.6382 25.6185 33.6604C25.7874 33.6601 25.8637 33.6157 25.88 33.6139C25.926 33.6091 25.9484 33.6332 25.9626 33.6325C26.6474 33.5947 26.2303 33.594 26.5675 33.4818C26.6912 33.513 26.5697 33.5565 26.5543 33.5953C26.7154 33.5695 26.7664 33.5775 26.9369 33.5673C26.9813 33.5646 27.028 33.5419 27.056 33.5403C27.0801 33.5389 27.1574 33.5571 27.2162 33.5545C27.3142 33.5502 27.4438 33.5313 27.5776 33.5258C27.689 33.5212 28.0297 33.5221 28.2658 33.513C28.3666 33.509 28.3425 33.4918 28.3686 33.4907C28.3794 33.4903 28.4587 33.509 28.5233 33.5067C29.0495 33.4872 29.5984 33.4552 30.1258 33.4412C30.4943 33.4313 30.8851 33.4396 31.2586 33.4307C31.3384 33.4287 31.2958 33.4135 31.3306 33.4123C31.3426 33.4119 31.3576 33.4396 31.4805 33.4261C31.5249 33.4213 31.4734 33.4027 31.5171 33.4009C31.5383 33.4001 31.5479 33.4244 31.6721 33.428C31.8976 33.4345 32.0174 33.4004 32.0375 33.4011C32.0762 33.4024 32.0652 33.4229 32.1164 33.4229C32.3666 33.4233 32.5742 33.4248 32.7952 33.4249C32.8998 33.4244 33.6038 33.4263 33.6431 33.4232C33.7317 33.4152 33.6493 33.3728 33.7628 33.3744C33.7945 33.3851 33.8262 33.3959 33.8579 33.4067C33.8075 33.4147 33.7571 33.4228 33.7066 33.4309C33.8456 33.4174 34.0025 33.4371 34.1045 33.4369C34.1234 33.4368 34.2969 33.4185 34.3849 33.4213C34.3475 33.413 34.3101 33.4048 34.2726 33.3966C34.2859 33.3899 34.2992 33.3832 34.3125 33.3765C34.4889 33.388 34.6745 33.3894 34.8534 33.3901C34.9178 33.3904 34.8963 33.3736 34.9615 33.3739C35.3402 33.3758 35.2492 33.4428 35.6226 33.3213C35.4976 33.3301 35.0341 33.3063 34.9727 33.31C34.9271 33.3124 34.7486 33.419 34.8149 33.3082C34.4483 33.3049 34.7667 33.3695 34.4232 33.353C34.4302 33.3395 34.4372 33.3259 34.4442 33.3123C34.324 33.3028 34.2349 33.2954 34.1613 33.3191C34.1384 33.2528 33.7214 33.2899 33.4996 33.2859C33.1793 33.2798 32.8137 33.2657 32.4906 33.266C32.3792 33.2661 32.3162 33.2928 32.3023 33.2928C32.2818 33.2929 32.224 33.2709 32.1831 33.2712C32.0268 33.2722 31.5759 33.3175 31.4591 33.2568C32.3541 33.2409 33.2538 33.2339 34.1609 33.2385C34.0486 33.2681 34.9571 33.2786 35.0005 33.2787C35.0426 33.2779 35.0075 33.2557 35.02 33.2545C35.1129 33.2465 35.1937 33.2792 35.2245 33.2797C35.2478 33.2801 35.295 33.266 35.3774 33.2678C35.3925 33.2681 35.3965 33.2838 35.4127 33.2841C35.5201 33.2861 35.6258 33.2879 35.7327 33.2903C35.7392 33.2902 35.7667 33.268 35.7937 33.2686C35.8207 33.2691 35.8469 33.2926 35.8537 33.2928C35.939 33.2945 36.0849 33.2833 36.1653 33.2852C36.1932 33.286 36.1735 33.3022 36.2047 33.3029C36.3006 33.3051 36.27 33.2715 36.3881 33.2833C36.4276 33.2872 36.4243 33.3122 36.5 33.3112C36.5536 33.3104 36.5492 33.2657 36.5577 33.2643C36.5676 33.2626 36.7577 33.304 36.821 33.277C36.6874 33.1953 36.9702 33.2781 36.9551 33.3102C37.0306 33.3047 37.1058 33.2994 37.1809 33.2941C37.2061 33.3033 37.2312 33.3126 37.2563 33.3218C37.5582 33.2969 37.7386 33.3274 38.0282 33.3305C38.0415 33.3305 38.2971 33.3257 38.2854 33.3136C38.1346 33.2854 37.9843 33.2769 37.8904 33.3092C37.7393 33.2316 37.7344 33.2872 37.4831 33.2669C37.3988 33.2601 37.3934 33.2408 37.3837 33.2402C37.056 33.2166 36.5146 33.1906 36.2991 33.2407C36.2379 33.2239 36.4596 33.2242 36.3738 33.2107C36.3311 33.2015 35.1829 33.1593 35.5487 33.2312C35.5106 33.2287 35.4723 33.2262 35.434 33.2237C35.3969 33.1624 35.2052 33.1731 35.2259 33.2338C35.208 33.2212 35.19 33.2086 35.172 33.1959C35.1355 33.1849 35.0958 33.1787 35.0378 33.1746C34.8237 33.1565 33.4723 33.1714 33.4084 33.1648C33.4068 33.1505 33.4052 33.1362 33.4035 33.1219C33.9926 33.1047 34.5726 33.1434 35.2081 33.1122C35.1888 33.1254 35.1696 33.1385 35.1504 33.1517C35.4119 33.1368 35.6713 33.1229 35.9283 33.1101C35.6602 33.0793 35.2125 33.0508 34.9353 33.0675C34.8851 33.0705 34.9216 33.0896 34.9101 33.0918C34.8798 33.0973 34.848 33.0644 34.7394 33.06C34.631 33.0556 34.3563 33.0764 34.3309 33.0757C34.2824 33.074 34.1511 33.0361 34.0678 33.0362C33.9584 33.0364 34.0316 33.0597 34.0097 33.0601C33.9188 33.062 33.837 33.0505 33.7655 33.0521C33.6574 33.0544 33.4428 33.095 33.3699 33.0358C33.4442 33.0329 33.5183 33.0301 33.5923 33.0274C33.1907 33.0062 32.8743 33.0838 32.4713 33.0291C32.379 32.958 32.712 32.9646 32.4302 32.9366C32.4814 32.9371 32.5325 32.9376 32.5836 32.9382C32.5957 32.9532 32.6077 32.9681 32.6198 32.9831C32.7076 32.9716 32.7952 32.9602 32.8826 32.9488C32.8577 32.9624 32.8329 32.976 32.8079 32.9896C33.1187 32.9975 33.4288 33.0108 33.5358 32.9385C33.5421 32.956 33.5484 32.9734 33.5548 32.9909C33.8448 32.9693 34.2811 33.0456 34.1998 32.9481C34.2135 32.9533 34.2272 32.9586 34.2408 32.9638C34.4156 32.945 34.3407 32.9847 34.4062 32.9897C34.4251 32.991 34.7625 32.9735 34.6134 32.9432C34.9421 32.9245 34.8394 33.0144 34.9296 33.0194C35.1348 32.9768 35.5245 33.0512 35.3625 32.9773C35.3945 32.9752 35.4264 32.9731 35.4583 32.971C35.5619 33.0288 35.6658 32.9676 35.7789 32.9489C35.817 32.9485 35.8551 32.9481 35.8932 32.9477C35.9182 32.9671 35.9432 32.9865 35.9682 33.0059C36.3268 32.9253 36.207 33.1674 36.3745 32.9662C36.3497 32.9532 36.3249 32.9402 36.3 32.9271C36.2404 32.9196 36.1806 32.9122 36.1206 32.9048C36.3649 32.9057 36.5971 32.9071 36.8498 32.9104C37.1655 32.8638 37.3401 32.9332 37.683 32.903C37.7147 32.9099 37.7462 32.9168 37.7778 32.9238C37.7475 32.8757 37.6239 32.8767 37.8546 32.8667C37.8758 32.8347 37.7208 32.8231 37.6485 32.8452C37.6311 32.8506 37.7757 32.8824 37.6119 32.8759C37.5001 32.8716 37.7053 32.8407 37.369 32.8411C37.3818 32.8336 37.3945 32.8261 37.4073 32.8186C37.3709 32.8173 37.3344 32.816 37.2978 32.8148C37.2645 32.8321 37.2312 32.8494 37.1979 32.8667C37.1151 32.8366 37.0696 32.797 36.8762 32.7982C36.9281 32.8117 36.8559 32.8466 36.76 32.8427C36.7604 32.8293 36.7609 32.8158 36.7613 32.8023C36.5278 32.7861 36.6108 32.8283 36.4232 32.7918C36.4041 32.8019 36.385 32.8121 36.366 32.8223C36.2657 32.775 35.8868 32.7356 35.9544 32.8035C35.8494 32.7366 35.6233 32.7609 35.5382 32.8108C35.532 32.7973 35.5258 32.7838 35.5195 32.7703C35.4748 32.7667 35.43 32.7632 35.3851 32.7597C35.3598 32.7673 35.3346 32.775 35.3094 32.7827C35.2776 32.7741 35.2458 32.7654 35.214 32.7569C35.1944 32.77 35.1749 32.7831 35.1554 32.7963C35.1055 32.7794 35.0562 32.7626 35.0064 32.7458C34.9758 32.7561 34.9451 32.7665 34.9143 32.7768C34.9118 32.7486 34.6078 32.739 34.522 32.7568C34.4966 32.7484 34.4712 32.7401 34.4458 32.7317C34.4333 32.745 34.4207 32.7582 34.4081 32.7715C34.3893 32.7607 34.3703 32.7499 34.3514 32.7391C34.3076 32.7494 34.2637 32.7598 34.2197 32.7702C34.041 32.7039 34.0346 32.7613 33.9937 32.7608C33.9178 32.7597 33.6576 32.7183 33.6138 32.7205C33.5713 32.7226 33.5509 32.7461 33.5167 32.7483C32.9511 32.7863 33.1829 32.7232 33.0691 32.7135C33.0075 32.7084 32.964 32.7305 32.9094 32.7284C32.8165 32.7247 32.3425 32.7 32.3147 32.7034C32.2749 32.7079 32.3698 32.81 32.24 32.7849C32.2352 32.7295 31.9582 32.789 32.087 32.71C31.9724 32.7183 31.8625 32.7266 31.7499 32.7351C31.7616 32.6692 31.6238 32.7136 31.4724 32.7126C31.2583 32.711 30.7708 32.6783 30.79 32.7455C30.7378 32.7312 30.6855 32.7169 30.6332 32.7026C30.276 32.7324 29.9377 32.7194 29.5863 32.7295C28.5412 32.7591 27.4194 32.8205 26.3894 32.8859C26.3399 32.889 26.3481 32.9107 26.3125 32.913C26.1252 32.9248 25.6356 32.9351 25.3722 32.9549C25.2884 32.9611 25.2487 32.9849 25.2221 32.9874C25.1319 32.996 25.1516 32.9666 25.11 32.9697C25.0444 32.9747 24.6982 33.0213 24.5785 33.0314C24.5192 33.0363 24.4477 33.0181 24.3786 33.0293C24.3726 33.0302 24.3851 33.0527 24.38 33.0534C24.2535 33.064 24.3285 33.0393 24.2857 33.043C23.9805 33.0694 23.6534 33.0907 23.3228 33.1175C23.2407 33.1242 23.1159 33.149 23.0454 33.1553C23.0185 33.1577 23.0656 33.1368 22.9727 33.1446C22.9408 33.1473 22.9315 33.1709 22.8956 33.1748C22.741 33.1917 22.684 33.122 22.5549 33.1903C22.2975 33.2044 21.8485 33.2181 21.6135 33.2354C21.558 33.2395 21.5319 33.255 21.479 33.2587C21.4414 33.2614 21.3738 33.2455 21.3152 33.2498C21.2566 33.254 21.1657 33.2809 21.0531 33.2889C20.9346 33.2973 20.7864 33.2971 20.7597 33.2993C20.7275 33.3018 20.7144 33.3281 20.6822 33.3303C20.5845 33.3372 20.3226 33.3334 20.196 33.3411C20.0603 33.3493 19.9801 33.3682 19.9338 33.3717C19.891 33.3749 19.8393 33.3579 19.8197 33.3594C19.7893 33.3616 19.7842 33.3869 19.7456 33.3899C19.6825 33.3948 19.6161 33.3847 19.5216 33.3922C17.8203 33.5284 16.1552 33.7022 14.5038 33.8973C14.32 33.9191 14.2141 33.913 13.9455 33.9504C13.8368 33.9656 13.8855 33.986 13.8002 33.9905C13.7622 33.9925 13.7695 33.9715 13.7216 33.9758C13.5075 33.9952 13.2578 34.0422 13.1655 34.0524C13.1287 34.0565 13.0841 34.0385 13.0087 34.0468C12.4499 34.1079 11.7882 34.1926 11.1845 34.263C10.8676 34.2998 10.3865 34.3485 10.0157 34.3949C9.00932 34.5204 7.9335 34.6741 6.99868 34.8097C5.60859 35.0116 4.23906 35.2097 2.85411 35.492C3.47979 35.3188 4.3605 35.1712 5.09464 35.0468C7.16406 34.6944 9.39624 34.4213 11.5385 34.1603C12.2949 34.068 13.2244 33.9619 14.0417 33.8599C14.0784 33.8553 14.1567 33.8645 14.2364 33.854C14.2532 33.8517 14.4604 33.797 14.5316 33.7891C14.4702 33.853 14.7437 33.7727 14.8305 33.765C14.9389 33.7553 15.1736 33.7593 15.4234 33.7174C15.6511 33.6793 15.5858 33.664 15.5983 33.6613C15.6786 33.6442 15.7105 33.6765 15.7732 33.6737C16.0278 33.6612 17.345 33.5122 17.7094 33.4783C17.8042 33.4692 17.8048 33.4465 17.8262 33.4445C17.8828 33.4391 17.9655 33.4538 18.0563 33.4454C18.2201 33.4301 18.4073 33.392 18.4977 33.3839C18.7138 33.3643 19.122 33.3538 19.4023 33.3305C19.481 33.324 19.4742 33.3011 19.5098 33.2981C19.6667 33.2852 20.0783 33.2787 20.2738 33.2632C20.5895 33.238 20.9135 33.1973 21.2359 33.1804C21.2555 33.1684 21.2751 33.1564 21.2947 33.1445C21.3277 33.1529 21.3607 33.1614 21.3937 33.1699C21.9378 33.1203 22.4933 33.1039 23.0345 33.0656C23.0968 33.0611 23.4042 33.0205 23.4557 33.0171C23.4985 33.0143 23.5424 33.0373 23.6056 33.0294C23.6942 33.0184 23.6071 32.9747 23.7536 32.9793C23.793 32.9806 23.7564 33.0041 23.8354 33.0056C23.8616 33.0059 24.3659 32.983 24.3929 32.98C24.4378 32.9748 24.4753 32.9273 24.4869 32.9256C24.5471 32.9169 24.5466 32.9516 24.5874 32.9523C24.7078 32.9546 24.8628 32.9221 24.8822 32.9215C25.1176 32.914 25.5589 32.9169 25.8061 32.8874C25.8402 32.8833 25.8348 32.8577 25.8407 32.8566C25.8792 32.8492 25.9049 32.8772 25.9418 32.876C26.1405 32.8687 26.4499 32.8332 26.6487 32.8185C26.6715 32.8168 26.7206 32.8286 26.7614 32.8252C26.9921 32.8062 26.916 32.7872 26.9291 32.7856C26.9602 32.7817 27.0158 32.8041 27.099 32.8018C27.3147 32.7958 27.7265 32.7741 27.9559 32.7628C28.1278 32.7542 28.124 32.7258 28.1353 32.7247C28.1593 32.7228 28.2272 32.7429 28.3402 32.7411C28.5576 32.7378 28.5319 32.7163 28.6211 32.714C28.6286 32.7137 28.6165 32.7361 28.7153 32.7348C28.9082 32.7319 29.3419 32.6955 29.5473 32.6904C29.6265 32.6883 29.6456 32.709 29.7266 32.707C29.8549 32.7038 30.1428 32.6727 30.1655 32.6723C30.1718 32.6721 30.1868 32.6961 30.2242 32.6951C30.2654 32.694 30.3055 32.6804 30.3362 32.6797C30.5115 32.6754 30.8195 32.7109 30.7322 32.6258C30.7895 32.646 30.8467 32.6662 30.9038 32.6865C31.2738 32.6741 31.6312 32.6764 31.9928 32.6759C32.0743 32.6757 32.1447 32.6583 32.2144 32.6583C32.2847 32.6582 32.5929 32.6824 32.644 32.6826C32.7362 32.6824 33.2534 32.6826 33.3168 32.6807C33.4417 32.6767 33.5624 32.6406 33.6131 32.6477C33.6549 32.6533 33.6163 32.6736 33.6959 32.6794C33.8337 32.6894 34.0664 32.6641 34.1081 32.6648C34.1259 32.6651 34.0926 32.6806 34.2591 32.6827C34.3488 32.6839 34.3969 32.6669 34.4294 32.6672C34.4394 32.6674 34.4243 32.6954 34.6007 32.6932C34.7225 32.6917 34.7743 32.6705 34.7871 32.6706C34.8062 32.6706 34.8521 32.6944 34.9286 32.6946C35.1036 32.6946 35.4428 32.6734 35.615 32.675C35.6485 32.6752 35.6367 32.7031 35.7698 32.7033C35.8649 32.7035 35.8487 32.6808 35.8843 32.6807C35.9406 32.6806 36.0238 32.71 36.1473 32.7123C36.2957 32.7127 37.4707 32.7255 37.5276 32.7228C37.5681 32.7196 37.6147 32.7213 37.6351 32.7101C37.6186 32.6977 37.602 32.6853 37.5855 32.6729C37.4066 32.706 37.48 32.6625 37.433 32.6575C37.3651 32.6502 37.1058 32.646 37.0429 32.6334C37.0205 32.6288 37.073 32.6058 36.9525 32.5887C36.8231 32.5704 36.7634 32.6128 36.7134 32.5506C36.5274 32.6118 36.3607 32.5356 36.5681 32.5228C36.6867 32.5137 37.8531 32.5354 38.0779 32.5458C38.2741 32.5526 38.6368 32.591 38.8713 32.6015C39.0102 32.6072 39.3459 32.6274 39.3337 32.5945C39.4545 32.5991 39.3247 32.6219 39.3497 32.6281C39.3956 32.6404 39.795 32.6485 39.8665 32.6556C40.2346 32.6895 40.6545 32.7645 41.025 32.7631C41.0094 32.7528 40.9937 32.7425 40.978 32.7322C40.8956 32.7072 40.5347 32.6944 40.499 32.6499C41.0216 32.6989 41.5727 32.76 42.0932 32.8301C42.0815 32.8624 42.7494 32.9582 42.7794 32.9487C42.7705 32.93 42.7617 32.9114 42.7528 32.8928C42.371 32.8999 42.4154 32.821 42.1526 32.8303C42.0474 32.8167 42.0828 32.7931 42.0314 32.7809C41.5467 32.665 42.0167 32.8364 41.6432 32.7645C41.7621 32.7378 41.4541 32.6853 41.3124 32.6644C41.2814 32.6593 40.8523 32.6238 40.7998 32.6185C40.5261 32.5868 40.0516 32.522 39.7656 32.5223C39.5416 32.5074 39.4213 32.4695 39.2277 32.4493C39.0792 32.434 39.1204 32.4573 39.0501 32.4529C38.9022 32.4437 38.8569 32.3786 38.7561 32.4593C38.6555 32.4423 38.5545 32.4255 38.4528 32.4089C38.4521 32.4224 38.4513 32.4358 38.4505 32.4493C38.3863 32.4457 38.3219 32.4421 38.2573 32.4387C38.2391 32.4242 38.2207 32.4098 38.2024 32.3954C37.9949 32.403 38.0818 32.4401 38.0416 32.4762C37.9989 32.4767 37.9561 32.4772 37.9133 32.4777C37.8816 32.4469 37.8499 32.416 37.8181 32.3852C37.6264 32.3785 37.433 32.3726 37.2381 32.3673C37.2249 32.3802 37.2118 32.3932 37.1987 32.4061C37.1988 32.3927 37.1989 32.3792 37.199 32.3658C36.8677 32.3502 36.5353 32.3368 36.2127 32.3254C36.1276 32.3014 36.6464 32.2997 36.6874 32.3002C36.9154 32.2997 37.5055 32.3448 37.5074 32.2974C37.6454 32.3388 38.0495 32.3491 38.1858 32.3137C37.9856 32.3058 37.798 32.2993 37.6015 32.2932C37.6085 32.2775 37.6155 32.2617 37.6226 32.246C37.3764 32.3 37.3411 32.295 37.0902 32.2243C37.0892 32.2458 37.0881 32.2673 37.0871 32.2888C36.9139 32.2072 36.5916 32.3239 36.5898 32.2315C36.4979 32.2362 36.4057 32.2409 36.3132 32.2459C36.113 32.2297 36.4295 32.1649 35.6389 32.1753C35.5841 32.1762 35.5951 32.1999 35.5128 32.1967C35.4897 32.1959 35.3513 32.1588 35.0934 32.1587C35.0537 32.1587 35.0504 32.1791 35.0092 32.1811C34.9141 32.1859 34.7242 32.1434 34.8099 32.2102C34.4308 32.2254 34.5881 32.1732 34.4704 32.1506C34.3917 32.1358 34.4073 32.1748 34.339 32.1655C34.2543 32.1541 34.3174 32.1148 33.9768 32.1315C34.015 32.1343 34.0532 32.1372 34.0914 32.14C34.0721 32.1506 34.0529 32.1612 34.0336 32.1718C33.8392 32.1455 33.8573 32.183 33.7654 32.1229C33.6218 32.1495 33.5035 32.1516 33.3131 32.1472C32.943 32.1391 33.133 32.0734 32.7085 32.1632C32.6395 32.1516 32.5703 32.14 32.5009 32.1284C32.3873 32.1552 32.4798 32.1864 32.3098 32.1947C32.4424 32.1297 32.0833 32.1569 32.0213 32.1013C32.0151 32.1149 32.0091 32.1284 32.003 32.142C31.9657 32.1425 31.9284 32.143 31.891 32.1435C31.8908 32.1327 31.8905 32.1219 31.8902 32.1111C31.8406 32.1199 31.7909 32.1288 31.7411 32.1376C31.7035 32.1275 31.6658 32.1174 31.628 32.1073C31.5667 32.1309 31.5052 32.1545 31.4437 32.1782C31.4049 32.1805 31.3661 32.1827 31.3272 32.185C31.3392 32.1687 31.3512 32.1523 31.3633 32.136C31.3134 32.1423 31.2634 32.1486 31.2134 32.155C31.2712 32.1275 31.2341 32.0971 31.0779 32.1011C30.9489 32.1045 31.0956 32.1564 30.8173 32.1395C30.7978 32.1384 30.7629 32.0996 30.4991 32.1C30.1839 32.1006 30.3384 32.1253 30.2824 32.1277C30.2715 32.1281 30.176 32.1108 30.0867 32.1104C30.036 32.1102 29.9877 32.1276 29.981 32.1277C29.9497 32.1279 29.94 32.1055 29.8966 32.106C29.7865 32.1072 29.6388 32.1227 29.5306 32.1249C29.4813 32.126 29.4346 32.1141 29.4126 32.1146C29.3785 32.1156 29.336 32.1374 29.3015 32.1384C29.1741 32.1421 28.9779 32.081 28.9218 32.1773C28.795 32.095 28.5444 32.2091 28.561 32.1504C28.2382 32.1837 27.364 32.1497 27.3935 32.2466C27.2044 32.1714 27.2236 32.2312 27.1459 32.2334C27.0589 32.2361 27.103 32.2178 27.0343 32.2217C26.8746 32.2309 26.7221 32.2452 26.5628 32.2533C26.5884 32.2655 26.6141 32.2776 26.6398 32.2898C26.4728 32.3023 26.5288 32.2683 26.3578 32.2709C26.0429 32.2759 26.1766 32.294 26.132 32.3314C26.1428 32.2969 25.772 32.3216 25.7344 32.3282C25.712 32.3322 25.8132 32.3704 25.5849 32.3687C25.5967 32.3546 25.6084 32.3405 25.6201 32.3264C25.5173 32.3503 25.2348 32.3428 25.1878 32.35C25.1661 32.3534 25.0556 32.4681 24.9437 32.3888C24.9316 32.4029 24.9194 32.4171 24.9073 32.4313C24.7876 32.4221 24.6679 32.413 24.548 32.404C24.5305 32.4293 24.513 32.4546 24.4955 32.4799C24.4578 32.4822 24.4201 32.4844 24.3824 32.4867C24.4061 32.4638 24.4298 32.4408 24.4535 32.4179C24.2212 32.4416 23.9343 32.4258 23.8908 32.5012C23.84 32.4909 23.7893 32.4807 23.7384 32.4705C23.7075 32.4967 23.6765 32.5228 23.6456 32.549C23.4145 32.5579 23.4097 32.5421 23.2502 32.527C23.2576 32.5453 23.265 32.5637 23.2724 32.582C23.1544 32.5634 22.9402 32.5532 22.7721 32.5615C22.6921 32.5655 22.5568 32.6009 22.5378 32.5999C22.5187 32.5988 22.3242 32.5104 22.3102 32.5998C22.0318 32.5806 21.9134 32.6293 21.8014 32.6366C21.7286 32.6413 21.6939 32.6226 21.6116 32.6266C21.4938 32.6322 21.3763 32.6513 21.3085 32.655C21.2696 32.6571 21.2608 32.6371 21.234 32.6385C21.1074 32.645 21.1831 32.6603 21.0498 32.6692C21.0375 32.6699 20.9382 32.6524 20.8288 32.6642C20.7676 32.6707 20.6113 32.7115 20.5973 32.7125C20.5353 32.717 20.5803 32.6566 20.3737 32.7387C20.379 32.7275 20.3843 32.7163 20.3896 32.705C20.1256 32.6989 20.0868 32.7503 20.0342 32.758C20.0274 32.7588 19.9618 32.7456 19.9237 32.7513C19.8593 32.761 19.8353 32.7884 19.821 32.7907C19.7709 32.7988 19.6 32.8018 19.4911 32.8357C19.5083 32.7616 19.1174 32.7691 19.0386 32.8581C18.9685 32.848 18.8985 32.8379 18.8285 32.8278C18.7986 32.8439 18.7688 32.8601 18.739 32.8762C18.7189 32.8645 18.6989 32.8528 18.6789 32.8411C18.5818 32.8793 18.4838 32.9177 18.3857 32.9562C18.3767 32.9272 18.3676 32.8983 18.3586 32.8694C18.3307 32.8753 18.3028 32.8811 18.275 32.887C18.2551 32.9124 18.2352 32.9379 18.2153 32.9633C18.1797 32.962 18.1442 32.9607 18.1086 32.9594C18.0983 32.9432 18.0881 32.9271 18.0779 32.9109C17.8871 32.9086 17.9988 33.0613 17.6265 32.9523C17.5719 32.9709 17.5174 32.9895 17.4629 33.0081C17.3938 32.9489 17.2795 32.9994 17.1838 33.0011C17.1164 33.0023 17.1176 32.9761 17.0264 32.9842C16.9351 32.9923 16.9408 33.0167 16.9337 33.0176C16.86 33.0262 16.8004 33.0099 16.7458 33.0196C16.7376 33.0211 16.7196 33.0524 16.6495 33.0611C16.5795 33.0698 16.5341 33.0427 16.4302 33.0588C16.377 33.0671 16.364 33.0933 16.3168 33.1002C16.092 33.1331 15.8527 33.0307 15.6994 33.1963C15.6595 33.1813 15.378 33.1435 15.2612 33.1595C15.0779 33.1846 15.1513 33.2064 15.0784 33.2194C15.0679 33.2213 15.0104 33.2173 14.8555 33.2354C14.8278 33.2386 14.8325 33.2215 14.8285 33.2217C14.6476 33.2411 14.2996 33.2914 14.1035 33.3152C14.086 33.3173 13.9889 33.2815 13.8404 33.3602C13.6095 33.3394 13.174 33.4871 12.8619 33.4535C12.8193 33.4569 12.7698 33.4792 12.751 33.4808C12.5893 33.4943 12.6417 33.4377 12.2879 33.5528C12.3142 33.524 12.2267 33.5111 12.1077 33.5271C11.9289 33.5512 12.0618 33.5833 11.9144 33.597C11.9128 33.5836 11.9112 33.5703 11.9096 33.5569C11.5746 33.6334 11.5006 33.5845 11.1641 33.6253C11.0431 33.6401 10.8692 33.6917 10.8407 33.6953C10.8296 33.6966 10.6945 33.6808 10.6821 33.6822C10.6116 33.69 10.5738 33.7098 10.5133 33.7175C10.3082 33.7437 10.0573 33.7334 10.1116 33.8036C10.0532 33.7948 9.99494 33.786 9.93677 33.7773C9.73534 33.8856 9.56401 33.7946 9.53034 33.8791C9.49072 33.8677 9.45113 33.8564 9.41159 33.8451C8.50892 33.9727 7.61112 34.1063 6.70123 34.25C6.66105 34.23 6.27473 34.2973 6.25637 34.3042C6.16757 34.336 6.27363 34.376 6.07852 34.393C6.05342 34.3722 6.02834 34.3514 6.00327 34.3306C5.76009 34.3601 5.88027 34.3661 5.78774 34.3971C5.74769 34.4003 5.75753 34.3797 5.70385 34.3866C5.41008 34.4246 4.83715 34.5156 4.50837 34.5691C4.44417 34.5795 4.45681 34.5953 4.43695 34.5987C4.38232 34.6076 4.27129 34.6036 4.16344 34.6219C3.50388 34.7331 2.54048 34.9199 1.86373 35.0748C1.81886 35.0851 1.81748 35.1069 1.78743 35.114C1.74571 35.1237 1.64954 35.1257 1.60669 35.1363C1.56701 35.146 1.53795 35.1683 1.4914 35.1798C1.27431 35.2333 0.98564 35.267 0.781375 35.3608C0.767852 35.3677 0.548424 35.504 0.541916 35.5114C0.517652 35.551 0.743082 35.5522 0.401835 35.6806C0.727953 35.649 0.636701 35.745 0.250183 35.8739C0.443555 35.8373 0.670639 35.7949 0.857743 35.7631C0.85993 35.7717 0.862116 35.7803 0.864302 35.7888C0.708875 35.8682 0.503406 35.9295 0.23985 35.9969C0.250132 36.0029 0.260425 36.0088 0.270729 36.0148C0.514897 35.9981 0.834264 35.9338 1.01204 35.9522C0.777241 36.0458 0.477059 36.1567 0.234266 36.2584C0.248755 36.2615 0.26328 36.2646 0.277842 36.2678C0.405246 36.2539 0.693908 36.197 0.811889 36.1868C1.22778 36.1545 0.456603 36.3129 0.589909 36.3206C1.03894 36.2153 1.43875 36.1289 1.88239 36.0378C1.90252 36.0542 0.25532 36.4905 0.302709 36.5714C0.433386 36.5452 0.568705 36.5189 0.708529 36.4923C0.651353 36.5265 0.595188 36.5607 0.540058 36.5948C0.558036 36.5972 0.576076 36.5996 0.594176 36.6021C0.8323 36.5628 1.05757 36.529 1.28136 36.497C0.611302 36.6255 0.26796 36.725 0.167362 36.9166C0.185438 36.9163 0.203601 36.916 0.221851 36.9157C0.32132 36.7845 1.05617 36.6462 1.41599 36.5924C1.34415 36.6376 1.02086 36.6849 0.961467 36.7169C0.944055 36.726 1.01307 36.7316 0.972543 36.7515C0.846796 36.8066 0.353929 36.9597 0.436608 36.9749C0.481407 36.9837 1.3073 36.8258 1.45888 36.7936C1.10872 36.9077 0.707351 37.0097 0.367736 37.1418C0.59789 37.1531 0.85265 37.1746 1.26125 37.0885C1.40563 37.0902 0.500974 37.3444 0.49668 37.3681C0.650087 37.3516 0.81012 37.3347 0.976515 37.3175C0.838366 37.3434 0.704896 37.3691 0.576296 37.3945C0.577499 37.4011 0.578702 37.4078 0.579906 37.4144C0.923666 37.3641 1.24921 37.3498 1.63492 37.2641C1.62885 37.3017 1.39479 37.3481 1.28703 37.3723ZM39.941 32.4545C39.9519 32.4257 39.7982 32.418 39.711 32.4119C39.7245 32.4075 39.738 32.4032 39.7515 32.3989C39.5614 32.3892 39.2278 32.377 39.2194 32.3191C39.0917 32.3032 39.145 32.3569 39.1032 32.3598C39.0869 32.3609 38.9208 32.3208 38.7827 32.3477C38.7505 32.3456 38.7182 32.3435 38.6859 32.3414C38.6808 32.3222 38.6756 32.3031 38.6705 32.2839C38.6239 32.304 38.5774 32.3242 38.5307 32.3443C39.0073 32.376 39.4549 32.4106 39.9403 32.4545C39.9405 32.4545 39.9407 32.4545 39.941 32.4545ZM35.2617 32.2161C35.0872 32.2238 34.8338 32.2376 34.8854 32.1867C34.9924 32.1907 35.0962 32.1948 35.2053 32.1992C35.2241 32.2048 35.2429 32.2105 35.2617 32.2161ZM18.4098 33.0024C18.2728 33.0655 18.1387 33.0335 17.9213 33.0626C17.9206 33.0519 17.9199 33.0412 17.9192 33.0305C18.0108 33.048 18.2453 33.0095 18.4098 33.0024ZM44.16 33.2332C44.1903 33.2357 44.2238 33.2389 44.2578 33.2424C44.1374 33.157 44.1135 33.1933 43.9717 33.1581C43.9632 33.156 43.9688 33.1437 43.9659 33.143C43.9313 33.1349 43.8958 33.1439 43.8642 33.1373C43.8033 33.1246 43.7566 33.0989 43.6464 33.0784C43.5611 33.0626 43.5555 33.0874 43.5255 33.0811C43.5023 33.0759 43.25 32.9594 43.0859 32.9628C42.7605 32.9616 44.085 33.2122 44.16 33.2332ZM45.0872 33.4101C45.0579 33.4018 45.0285 33.3936 44.9989 33.3854C45.0776 33.4469 44.9008 33.3927 44.7658 33.3581C44.7616 33.395 45.0474 33.4525 45.1651 33.498C45.1395 33.4686 45.1135 33.4393 45.0872 33.4101ZM41.234 32.806C41.3529 32.8231 41.3381 32.7747 41.3348 32.7604C41.2969 32.7561 41.2588 32.7518 41.2207 32.7476C41.2251 32.767 41.2296 32.7865 41.234 32.806ZM42.1186 32.9309C42.0811 32.8938 41.8305 32.8469 41.7112 32.8298C41.706 32.8292 41.7369 32.8504 41.6521 32.8384C41.6271 32.8346 41.3806 32.7421 41.4281 32.8198C41.6626 32.8552 41.877 32.8901 42.1182 32.9309C42.1183 32.9309 42.1185 32.9309 42.1186 32.9309ZM42.3866 32.9495C42.3389 32.9326 42.2909 32.9158 42.2426 32.8991C42.2149 32.9102 42.1872 32.9214 42.1595 32.9325C42.2156 32.944 42.2715 32.9555 42.327 32.9672C42.3469 32.9613 42.3668 32.9554 42.3866 32.9495ZM6.24739 34.6931C6.25637 34.6757 6.26539 34.6583 6.27437 34.6409C6.31451 34.6249 6.52944 34.6623 6.46666 34.6853C6.39327 34.6879 6.32336 34.69 6.24739 34.6931ZM5.36515 34.8643C5.3236 34.879 5.28219 34.8937 5.24092 34.9084C5.18774 34.8897 5.1347 34.871 5.08181 34.8523C5.28973 34.8003 5.51619 34.7433 5.49159 34.8276C5.54086 34.8198 5.59029 34.812 5.6399 34.8042C5.59312 34.7783 5.59673 34.7668 5.72382 34.7258C5.75939 34.7664 5.89068 34.7224 6.04885 34.7082C5.93537 34.7283 5.82274 34.7485 5.71098 34.7687C5.71222 34.7767 5.71347 34.7846 5.71471 34.7926C5.965 34.7506 5.66045 34.8496 5.49482 34.8435C5.4838 34.8561 5.47279 34.8687 5.4618 34.8813C5.42952 34.8756 5.39731 34.8699 5.36515 34.8643ZM23.444 32.8779C23.4134 32.8881 23.3828 32.8982 23.3522 32.9083C23.2247 32.8111 23.4767 32.8946 23.6461 32.8C23.5923 32.867 23.8591 32.8471 23.8746 32.8505C23.8453 32.8737 23.8159 32.897 23.7866 32.9202C23.6721 32.9061 23.5582 32.8919 23.444 32.8779ZM22.567 33.0105C22.6712 32.9504 22.1411 32.9846 21.9643 33.0093C21.9212 33.0153 21.8462 33.0498 21.8147 33.0484C21.795 33.0392 21.7753 33.03 21.7556 33.0207C21.7358 33.0591 21.3855 33.0437 21.2473 33.0345C21.2354 33.0489 21.2236 33.0632 21.2117 33.0776C21.1615 33.0761 21.1112 33.0746 21.061 33.0732C21.0683 33.086 21.0756 33.0989 21.0829 33.1117C21.044 33.0986 21.005 33.0855 20.9661 33.0723C20.8168 33.066 20.9137 33.1316 20.8008 33.1177C20.6754 33.1022 20.8743 33.0429 20.8684 33.0151C20.9692 33.0145 21.1985 33.0131 21.3005 33.0062C21.359 33.0022 21.2888 32.9566 21.5454 32.9957C21.5997 32.978 21.654 32.9604 21.7083 32.9427C21.8114 32.9567 21.9147 32.9707 22.0176 32.9849C22.0352 32.9648 22.0527 32.9447 22.0703 32.9246C22.0809 32.9209 22.3185 32.9465 22.307 32.9615C22.3994 32.9189 22.5942 32.8987 22.7996 32.8827C22.8201 32.8915 22.8406 32.9003 22.8611 32.9091C22.6607 32.9009 22.7986 32.9243 22.7407 32.9478C22.7072 32.9614 22.6041 32.9908 22.567 33.0105ZM7.62886 34.5308C7.28408 34.5341 7.49769 34.5413 7.13569 34.594C7.15736 34.5663 7.17908 34.5387 7.20084 34.511C7.38464 34.5289 7.67735 34.4573 7.62921 34.5307C7.62909 34.5307 7.62898 34.5307 7.62886 34.5308ZM4.10521 34.9984C4.29477 34.981 4.20634 35.0341 4.44821 35.0057C4.44832 35.0057 4.44844 35.0056 4.44855 35.0056C4.32451 35.0292 4.2018 35.0527 4.08044 35.0762C4.08867 35.0503 4.09693 35.0243 4.10521 34.9984ZM15.2146 33.5514C15.3962 33.522 15.3613 33.5446 15.5223 33.4902C15.7723 33.5106 15.5639 33.5254 15.5682 33.5666C15.5109 33.5603 15.4536 33.5539 15.3964 33.5476C15.2648 33.6001 15.3954 33.6063 15.3958 33.61C15.3957 33.61 15.3956 33.61 15.3955 33.61C15.3967 33.6224 15.4014 33.6246 15.3502 33.6374C15.3052 33.6087 15.2606 33.58 15.2146 33.5514ZM15.9979 33.523C15.9326 33.5018 15.9009 33.4695 16.0636 33.4354C16.0637 33.4354 16.0639 33.4354 16.064 33.4354C16.0833 33.4953 16.2362 33.4301 16.3088 33.4271C16.3284 33.4319 16.348 33.4367 16.3675 33.4415C16.2441 33.4686 16.1208 33.4957 15.9979 33.523ZM18.7591 33.3199C18.7538 33.2521 18.6154 33.2578 18.8039 33.1783C18.8417 33.1762 18.8795 33.1741 18.9173 33.172C18.9433 33.1848 18.9694 33.1975 18.9954 33.2102C19.4637 33.0464 19.6238 33.2426 18.8089 33.2346C18.8087 33.2346 18.8086 33.2346 18.8085 33.2345C18.792 33.263 18.7756 33.2914 18.7591 33.3199ZM17.9134 33.3901C17.9041 33.3551 17.8947 33.3201 17.8854 33.2851C17.7874 33.3806 17.643 33.3114 17.4417 33.3913C17.422 33.3822 17.4023 33.3732 17.3825 33.3641C17.3081 33.3948 16.548 33.4749 16.7072 33.4044C16.7772 33.3735 16.9387 33.3907 16.9514 33.3888C16.9966 33.3817 17.053 33.3455 17.13 33.3399C17.1745 33.3368 17.2716 33.3638 17.3625 33.3552C17.5653 33.3358 17.9284 33.205 18.2056 33.272C18.2239 33.2595 18.2423 33.2471 18.2607 33.2346C18.4609 33.2232 18.3973 33.2631 18.5796 33.2061C18.7227 33.3633 17.8324 33.2649 18.027 33.3855C18.0269 33.3855 18.0268 33.3855 18.0267 33.3855C17.9889 33.387 17.9512 33.3886 17.9134 33.3901ZM12.4429 33.9085C12.4344 33.9401 12.2011 33.9202 12.2632 33.9864C12.1856 33.9699 12.1101 33.9533 12.0308 33.9371C12.0306 33.9303 12.0303 33.9235 12.0301 33.9167C12.1065 33.913 12.1793 33.9097 12.2541 33.9063C12.2532 33.8956 12.2522 33.8849 12.2512 33.8741C12.3652 33.8998 12.8256 33.8294 12.8075 33.7932C12.8341 33.8063 12.8607 33.8195 12.8874 33.8326C13.1046 33.7636 13.3019 33.7882 13.5416 33.7184C13.562 33.7295 13.5824 33.7407 13.6029 33.7518C13.614 33.7397 13.6252 33.7277 13.6364 33.7156C13.7237 33.7045 13.8106 33.6936 13.898 33.6826C14.1872 33.6945 13.6421 33.8107 13.5713 33.8124C13.5621 33.8125 13.5604 33.7847 13.5032 33.7867C13.4009 33.7902 12.8432 33.8813 12.6698 33.8831C12.6704 33.9016 12.6711 33.9202 12.6717 33.9387C12.5953 33.9286 12.519 33.9185 12.4429 33.9085ZM19.8214 33.1561C19.8325 33.1363 19.8437 33.1165 19.8548 33.0967C20.0749 33.0973 20.2114 33.0698 20.1603 33.1364C20.1602 33.1364 20.1601 33.1364 20.16 33.1364C20.0471 33.1429 19.9342 33.1495 19.8214 33.1561ZM36.0939 32.5323C36.0872 32.5695 35.9824 32.5808 35.8471 32.551C35.8539 32.5403 35.8606 32.5296 35.8675 32.5189C35.9375 32.5523 36.0274 32.4988 36.244 32.5119C36.2435 32.5307 36.243 32.5495 36.2425 32.5683C36.193 32.5563 36.1435 32.5443 36.0939 32.5323ZM19.6337 33.1799C19.569 33.2076 19.3768 33.1564 19.4993 33.1427C19.593 33.1322 19.6684 33.1651 19.6337 33.1799ZM3.36455 35.1647C3.41325 35.152 3.46222 35.1393 3.51144 35.1266C3.54023 35.1377 3.56908 35.1489 3.59798 35.16C3.59786 35.1601 3.59775 35.1601 3.59763 35.1601C3.51938 35.1616 3.44169 35.1632 3.36455 35.1647ZM14.587 33.6144C14.7543 33.5989 14.9222 33.5835 15.0906 33.5683C15.0934 33.5785 15.0961 33.5887 15.0989 33.5989C14.9265 33.5786 14.8634 33.6266 14.8245 33.6332C14.8247 33.6332 14.8248 33.6332 14.825 33.6331C14.7002 33.6546 14.5814 33.6734 14.4644 33.6985C14.5052 33.6705 14.546 33.6424 14.587 33.6144ZM14.0235 33.7414C14.0435 33.6651 14.0787 33.6525 14.34 33.6764C14.3308 33.6866 14.3217 33.6967 14.3125 33.7068C14.1795 33.7157 14.1007 33.7072 14.128 33.7429C14.0932 33.7424 14.0583 33.7419 14.0235 33.7414ZM16.6342 33.4479C16.6055 33.4743 16.3581 33.4749 16.3702 33.4618C16.3749 33.4566 16.69 33.3962 16.6342 33.4479ZM37.9615 32.6174C37.9054 32.62 37.8492 32.6227 37.7928 32.6254C37.8671 32.6369 37.941 32.6485 38.0147 32.6602C37.997 32.646 37.9792 32.6317 37.9615 32.6174ZM38.5849 32.7561C38.6261 32.7492 38.4979 32.675 38.7421 32.6726C38.5656 32.6604 38.3874 32.6488 38.2076 32.6379C38.2914 32.653 38.3747 32.6684 38.4577 32.6838C38.4421 32.702 38.4264 32.7202 38.4107 32.7384C38.469 32.7442 38.527 32.7501 38.5849 32.7561ZM38.7776 32.7191C38.6804 32.7633 39.1771 32.7989 39.222 32.7964C39.2323 32.7957 39.2834 32.761 39.3018 32.7541C39.2278 32.7488 39.1535 32.7436 39.0788 32.7385C39.1046 32.7282 39.1304 32.7179 39.1561 32.7076C39.0692 32.6976 38.9819 32.6877 38.8941 32.6779C38.931 32.6924 38.9678 32.7069 39.0044 32.7214C38.9291 32.7205 38.8535 32.7197 38.7776 32.7191ZM36.7677 32.6124C36.8319 32.6133 36.8961 32.6142 36.96 32.6152C36.9466 32.6336 36.9331 32.6519 36.9197 32.6703C36.8814 32.6689 36.8431 32.6676 36.8047 32.6663C36.7924 32.6483 36.78 32.6303 36.7677 32.6124ZM38.0516 32.6904C37.9661 32.5953 37.71 32.7811 38.0012 32.722C38.0305 32.716 38.0597 32.6995 38.0516 32.6904ZM39.4063 32.7987C39.5999 32.8792 39.563 32.7302 39.3764 32.7594C39.3671 32.761 39.3922 32.7928 39.4063 32.7987ZM40.8818 32.9296C40.8981 32.9309 40.9321 32.8867 41.0818 32.9479C41.1078 32.9453 41.1338 32.9427 41.1597 32.9401C41.1038 32.9111 40.5908 32.8458 40.6606 32.9002C40.734 32.9081 40.8002 32.9227 40.8818 32.9296ZM40.3832 33.0564C40.3092 33.0483 40.2348 33.0403 40.1601 33.0324C40.186 33.0198 40.212 33.0073 40.2379 32.9948C40.2016 32.9875 40.1651 32.9802 40.1285 32.973C40.0632 32.9929 39.9977 33.013 39.932 33.0331C40.096 33.0508 40.2581 33.0692 40.4184 33.0882C40.4067 33.0776 40.3949 33.067 40.3832 33.0564ZM38.3834 32.9467C38.5307 32.9364 38.7081 32.9665 38.9413 32.9785C38.9414 32.9784 38.9415 32.9784 38.9416 32.9784C38.9533 32.9789 38.9752 32.96 39.0126 32.9616C39.0441 32.9622 39.6695 33.0298 39.6271 32.9928C39.3754 32.9426 39.2896 32.984 39.2355 32.9033C39.2226 32.9186 39.2097 32.9339 39.1969 32.9492C38.9626 32.9611 38.8989 32.9013 38.7678 32.8725C38.7675 32.8847 38.7673 32.8969 38.7671 32.909C38.6785 32.9048 38.5896 32.9007 38.5002 32.8967C38.5133 32.8895 38.5263 32.8822 38.5394 32.875C38.5078 32.8731 38.4762 32.8713 38.4445 32.8695C38.3654 32.9011 38.2668 32.9041 38.3834 32.9467ZM40.7186 33.0684C40.7821 33.1663 41.4765 33.1771 41.7716 33.2358C41.6207 33.1605 41.3669 33.1688 41.1884 33.1498C40.8422 33.1131 41.085 33.1053 41.0279 33.0841C40.9999 33.0736 40.7945 33.1117 40.7186 33.0684ZM37.8547 32.9031C38.022 32.9037 38.1166 32.9299 38.2693 32.9042C38.2571 32.8968 38.2449 32.8894 38.2327 32.882C38.1767 32.8848 37.7707 32.8842 37.8547 32.9031ZM42.2295 33.2724C41.8899 33.2591 42.0608 33.1984 41.8845 33.2382C41.9922 33.2562 42.1136 33.2765 42.2262 33.2963C42.2273 33.2884 42.2284 33.2804 42.2295 33.2724ZM19.2882 33.5576C19.1506 33.5715 18.9985 33.6016 18.9133 33.5741C19.0062 33.5606 19.0992 33.5471 19.1924 33.5337C19.2243 33.5417 19.2563 33.5497 19.2882 33.5576ZM23.2467 33.596C23.2158 33.6064 23.0897 33.5903 23.0766 33.5912C23.0522 33.5928 23.0597 33.6045 23.0595 33.6077C22.8999 33.6164 23.0445 33.5688 22.9259 33.5687C22.9056 33.5687 22.6297 33.6064 22.5168 33.6129C22.3432 33.6228 22.1702 33.6378 22.1054 33.6418C21.996 33.6487 21.7904 33.6355 21.6104 33.6475C21.5362 33.6525 21.512 33.677 21.4374 33.6821C20.9586 33.714 20.0155 33.7587 19.5915 33.8094C19.4869 33.8218 19.3896 33.8598 19.334 33.8621C19.2894 33.8551 19.2449 33.8481 19.2003 33.841C19.0745 33.9496 19.0223 33.8672 18.877 33.8708C18.7848 33.8731 18.7445 33.9057 18.7322 33.9067C18.6507 33.9133 18.6089 33.9032 18.544 33.9067C18.4712 33.9107 18.3682 33.933 18.3421 33.933C18.3261 33.9329 18.3732 33.89 18.0924 33.9163C17.8064 33.9431 17.5252 33.9733 17.2364 34.0026C17.3219 33.8783 17.4125 33.9492 17.5311 33.9424C17.563 33.9405 17.5411 33.9241 17.5688 33.9223C17.6471 33.9172 17.7984 33.9213 17.8627 33.911C17.9322 33.8998 17.9044 33.8596 17.9946 33.8671C17.9992 33.8675 17.9866 33.8863 18.0078 33.8874C18.2203 33.8972 18.2863 33.8604 18.5525 33.8358C18.7279 33.8188 19.7939 33.745 19.8305 33.731C20.0163 33.6533 18.8918 33.7481 18.7622 33.7652C18.7165 33.771 18.7662 33.7861 18.7248 33.7935C18.7075 33.7965 18.5442 33.7737 18.3852 33.7849C18.1931 33.7984 17.8112 33.8587 17.6296 33.8748C16.0647 34.013 14.5287 34.1946 12.9673 34.3738C12.9341 34.3776 12.8877 34.3606 12.7796 34.3731C10.7583 34.6068 8.66751 34.8949 6.63135 35.1901C6.20059 35.2525 5.72983 35.3043 5.29837 35.3904C5.24133 35.3832 5.1845 35.376 5.12787 35.3687C5.26764 35.3591 5.51927 35.2819 5.54306 35.2776C5.55153 35.2761 5.60782 35.2857 5.69456 35.271C5.81662 35.2505 5.86849 35.2265 5.87856 35.2249C5.90992 35.22 5.89195 35.2398 5.92193 35.2351C6.14371 35.1998 6.32906 35.1764 6.52333 35.1472C6.74899 35.1133 6.86046 35.0651 7.03279 35.0745C7.0498 35.0584 7.06683 35.0423 7.08389 35.0262C7.21781 35.0648 7.96874 34.9501 8.26402 34.9064C8.35881 34.8922 8.33898 34.8711 8.37095 34.8667C8.39155 34.8639 8.38696 34.8956 8.63689 34.8551C8.76295 34.8347 8.79337 34.8079 8.85725 34.7999C8.892 34.7956 8.88935 34.8185 8.93926 34.8117C9.23206 34.7721 9.44994 34.7359 9.72929 34.6951C9.80722 34.6837 9.80574 34.6652 9.82327 34.6631C9.88788 34.6555 10.0041 34.6722 10.1694 34.6509C10.4454 34.615 10.9778 34.5481 11.1962 34.5059C11.2283 34.4997 11.2524 34.4742 11.2763 34.4716C11.3125 34.4677 11.3295 34.4891 11.3359 34.4885C11.4569 34.4741 11.3815 34.4615 11.4632 34.4568C11.5073 34.4543 11.5562 34.4751 11.6586 34.4658C11.7939 34.4534 11.7637 34.4253 11.8205 34.4217C11.8266 34.4214 11.8309 34.443 11.8866 34.4371C12.1009 34.414 12.3978 34.3841 12.595 34.3611C12.6515 34.3545 12.6918 34.335 12.7707 34.3256C12.9268 34.3066 13.8468 34.2126 13.9141 34.1972C13.9217 34.1954 13.8382 34.172 13.9658 34.159C14.0044 34.1683 14.043 34.1776 14.0815 34.187C14.1413 34.1588 14.2011 34.1305 14.2611 34.1023C14.2667 34.1766 14.6349 34.1486 14.6234 34.0733C14.6634 34.0659 14.7033 34.0585 14.7434 34.0512C14.8329 34.0946 14.8868 34.0693 15.053 34.083C15.0767 34.0643 15.1004 34.0456 15.1242 34.0269C15.1317 34.0369 15.1392 34.0469 15.1467 34.057C15.228 33.9898 15.3762 34.0334 15.3928 34.032C15.4586 34.0265 15.5065 34.0067 15.5374 34.004C15.6527 33.9937 15.9047 33.9886 16.0392 33.9656C16.0455 33.9645 16.0367 33.9403 16.0749 33.9334C16.1439 33.9209 16.1542 33.9566 16.2428 33.9047C16.2626 33.9135 16.2824 33.9224 16.3022 33.9312C16.3215 33.9237 16.3409 33.9162 16.3603 33.9087C16.478 33.8999 16.596 33.8912 16.7142 33.8826C16.6029 33.851 16.7239 33.8155 16.844 33.8373C16.8846 33.8447 16.852 33.8736 16.8655 33.8762C16.8862 33.8794 17.4068 33.8166 17.4407 33.7969C17.4663 33.8026 17.4919 33.8083 17.5175 33.8141C17.5286 33.7968 17.5397 33.7795 17.5508 33.7622C17.565 33.7665 17.5793 33.7709 17.5935 33.7752C17.7276 33.734 18.0896 33.7665 18.1539 33.7555C18.1882 33.7496 18.1508 33.6837 18.3172 33.6758C18.3246 33.6941 18.3321 33.7125 18.3395 33.7308C18.3777 33.7301 18.4159 33.7294 18.4541 33.7287C18.5252 33.7207 18.6263 33.6787 18.6274 33.6561C18.6507 33.6675 18.674 33.679 18.6973 33.6905C18.7526 33.6415 19.0708 33.6292 19.2008 33.646C19.237 33.6296 19.2732 33.6132 19.3094 33.5968C19.361 33.6086 19.4125 33.6203 19.4641 33.6321C19.5808 33.6271 19.4557 33.6108 19.4803 33.6065C19.5323 33.5974 19.8037 33.62 19.7814 33.5654C19.8179 33.5622 19.8544 33.559 19.8909 33.5559C19.911 33.5704 19.9311 33.5848 19.9512 33.5993C20.0093 33.5389 20.1197 33.5493 20.3406 33.5112C20.3602 33.5224 20.3798 33.5336 20.3995 33.5449C20.4666 33.5212 20.5337 33.4977 20.6009 33.4741C20.6166 33.4941 20.6324 33.514 20.6482 33.534C20.6782 33.5346 20.7083 33.5353 20.7384 33.536C20.7953 33.484 20.9083 33.5265 20.9622 33.5027C21.0409 33.4679 20.9757 33.4389 20.8249 33.4441C20.8334 33.4087 21.2825 33.3898 21.3861 33.3846C21.3798 33.3918 21.3735 33.3991 21.3671 33.4063C21.2611 33.409 21.155 33.4118 21.049 33.4147C20.9672 33.508 21.2521 33.4626 21.3847 33.4638C21.3968 33.464 21.4675 33.4915 21.6 33.4785C21.6513 33.4734 21.8483 33.4106 21.8864 33.4052C22.1941 33.3607 21.9717 33.4457 22.2696 33.3638C22.2099 33.4143 22.3808 33.3636 22.5623 33.3598C22.5932 33.3591 22.8568 33.3782 22.8744 33.378C22.9847 33.3765 22.8623 33.344 23.0221 33.3437C23.0419 33.3531 23.0617 33.3625 23.0816 33.3719C23.1186 33.3694 23.1556 33.3669 23.1926 33.3644C23.4108 33.2541 23.4678 33.3209 23.5482 33.3246C23.5807 33.3262 23.5376 33.304 23.6215 33.3038C23.6532 33.3037 23.6893 33.3221 23.7744 33.3181C24.0403 33.3056 24.125 33.2114 24.3747 33.2886C24.4113 33.2729 24.448 33.2573 24.4846 33.2416C24.5109 33.2561 24.5371 33.2706 24.5633 33.2851C24.7538 33.227 24.6868 33.2788 24.7566 33.2741C24.9407 33.2616 25.3167 33.231 25.3475 33.1909C25.5115 33.2701 25.6973 33.1603 25.7603 33.1603C25.7982 33.169 25.8362 33.1777 25.8741 33.1864C25.9174 33.1733 25.9608 33.1603 26.0041 33.1472C25.9873 33.2348 26.2101 33.1379 26.2318 33.1355C26.257 33.1328 26.6073 33.1408 26.7369 33.1342C26.8664 33.1274 27.0904 33.0934 27.1106 33.0924C27.1337 33.0913 27.357 33.1046 27.5303 33.0968C27.6827 33.0892 28.576 33.02 28.5206 33.0612C28.4627 33.0741 28.3799 33.0865 28.3082 33.0944C28.0869 33.1171 26.7688 33.1953 26.4363 33.2196C25.7637 33.2656 25.0609 33.3026 24.3862 33.3524C24.3465 33.3553 24.3418 33.3781 24.3077 33.3807C24.256 33.3846 24.1231 33.3703 24.0721 33.374C23.8814 33.3879 23.6494 33.4066 23.5477 33.4139C23.3199 33.4299 23.1644 33.454 22.9921 33.4679C22.9382 33.4722 22.6633 33.4632 22.4771 33.4882C22.4436 33.4969 22.4102 33.5056 22.3767 33.5144C22.4736 33.5148 22.7277 33.5161 22.8452 33.5102C23.02 33.5013 23.1098 33.477 23.1743 33.473C23.2283 33.4696 23.5055 33.4719 23.6311 33.4643C23.6701 33.4619 23.6766 33.4379 23.7099 33.4358C23.8914 33.4246 24.1303 33.4102 24.2889 33.4235C24.2243 33.4199 24.6241 33.381 24.6451 33.3799C24.6811 33.3778 24.7214 33.3974 24.7949 33.3931C24.9361 33.3847 24.9156 33.3398 25.0946 33.3756C25.1375 33.3597 25.1804 33.3438 25.2233 33.3279C25.2287 33.3889 25.7783 33.2747 25.9398 33.3411C25.9445 33.3489 25.2256 33.4123 25.1676 33.4172C24.8132 33.4447 24.2861 33.4615 23.9414 33.4944C23.8375 33.5041 23.5137 33.5626 23.4891 33.5636C23.4493 33.5652 23.4838 33.5415 23.4666 33.5419C23.1146 33.5493 23.2925 33.5805 23.2467 33.596ZM38.7593 33.0094C38.6519 33.0053 38.5439 33.0014 38.4353 32.9978C38.4424 33.0117 38.4495 33.0256 38.4566 33.0395C38.5065 33.0371 38.5563 33.0347 38.606 33.0324C38.6434 33.0427 38.6808 33.0531 38.7181 33.0634C38.7318 33.0454 38.7456 33.0274 38.7593 33.0094ZM39.0185 33.0826C39.11 33.0955 39.1163 33.0675 39.1375 33.0675C39.2009 33.0677 39.2545 33.0829 39.3153 33.0869C39.2502 33.0145 39.0978 33.035 39.0185 33.0826ZM37.098 33.0081C37.1192 33.0057 37.2631 32.9384 37.4191 33.0127C37.5388 32.9962 37.658 32.98 37.7766 32.9641C37.5756 32.9873 37.2972 32.9417 37.1973 32.9392C37.1595 32.9382 37.1514 32.9602 37.1211 32.9594C36.9467 32.9545 36.7769 32.8983 36.7564 32.9716C36.9239 32.9556 37.0709 33.0111 37.098 33.0081ZM38.1394 33.0286C38.1686 33.0146 38.1977 33.0007 38.2267 32.9868C38.1242 32.9813 38.0228 32.9761 37.9254 32.9713C37.9513 32.9883 37.9771 33.0052 38.0028 33.0221C38.0467 33.0242 38.093 33.0263 38.1394 33.0286ZM30.4387 33.0128C30.501 33.0111 30.5632 33.0093 30.6254 33.0077C30.6222 33.019 30.5511 33.0207 30.5251 33.0289C30.5252 33.0289 30.5253 33.0289 30.5254 33.0289C30.4964 33.0382 30.5093 33.0524 30.4563 33.0601C30.4504 33.0443 30.4446 33.0286 30.4387 33.0128ZM5.06252 35.4283C4.9505 35.4462 4.0106 35.6046 4.08714 35.5506C4.12245 35.5236 4.44382 35.4871 4.54002 35.4708C4.66746 35.4489 5.01434 35.3469 5.06252 35.4283ZM3.38701 35.7226C3.35797 35.6858 3.9702 35.571 4.01575 35.5709C4.00486 35.5787 3.98877 35.5947 3.97348 35.6003C3.90557 35.6262 3.50862 35.6891 3.38701 35.7226ZM26.993 33.2567C27.04 33.2338 27.0863 33.2109 27.134 33.188C27.1225 33.2155 27.111 33.243 27.0996 33.2704C27.0641 33.2658 27.0286 33.2613 26.993 33.2567ZM22.3373 33.5046C21.5378 33.5631 20.7411 33.6259 19.9418 33.6934C20.0131 33.6987 20.0844 33.704 20.1557 33.7094C20.8427 33.6492 21.5753 33.5816 22.2416 33.5511C22.2735 33.5356 22.3054 33.5201 22.3373 33.5046ZM36.8653 33.1209C36.6546 33.114 36.4882 33.0891 36.2661 33.1144C36.4772 33.1507 36.5759 33.1066 36.7877 33.1586C36.7878 33.1586 36.7879 33.1586 36.7881 33.1586C36.8138 33.146 36.8396 33.1335 36.8653 33.1209ZM32.2818 33.0833C32.345 33.1014 32.408 33.1196 32.4709 33.1378C32.3955 33.1385 32.3199 33.1393 32.2442 33.1402C32.2567 33.1212 32.2693 33.1023 32.2818 33.0833ZM15.391 34.2179C15.173 34.199 14.6309 34.331 14.4534 34.3006C14.4418 34.2985 14.5425 34.2667 14.3718 34.2445C14.4983 34.2392 14.5883 34.2381 14.601 34.2686C14.6373 34.2539 14.6736 34.2392 14.7099 34.2245C14.773 34.226 14.8361 34.2275 14.8993 34.229C14.8892 34.1983 14.8943 34.1995 14.9924 34.2109C15.0352 34.1983 15.0781 34.1858 15.1211 34.1733C15.141 34.1846 15.161 34.196 15.1809 34.2074C15.2169 34.1848 15.2529 34.1622 15.289 34.1397C15.4377 34.1447 15.3521 34.19 15.391 34.2179ZM16.1342 34.1346C16.099 34.1446 15.113 34.2227 15.5535 34.1142C15.6699 34.1043 15.7865 34.0945 15.9033 34.0847C15.8172 34.1983 16.1258 34.0734 16.1519 34.0686C16.2761 34.046 16.4385 34.0548 16.5296 34.0446C16.6079 34.0358 16.6528 34.0126 16.7081 34.0077C16.8976 33.9908 17.1917 33.9634 17.2364 34.0026C17.0915 34.0173 16.945 34.0318 16.7919 34.0455C16.6308 34.0601 16.4933 34.1144 16.187 34.0887C16.1133 34.1021 16.143 34.1319 16.1342 34.1346ZM32.6595 33.1317C32.6519 33.0883 33.0317 33.0961 33.0339 33.1133C33.0347 33.1234 32.9114 33.1238 32.8937 33.1278C32.8936 33.1278 32.8935 33.1278 32.8934 33.1278C32.8861 33.1295 32.9235 33.1458 32.8655 33.1508C32.7969 33.1444 32.7283 33.138 32.6595 33.1317ZM6.54067 35.2949C6.50353 35.3238 5.32153 35.4991 5.29698 35.4926C5.28739 35.4909 5.29835 35.4783 5.29379 35.4728C5.56312 35.4641 5.94159 35.3636 6.20402 35.3207C6.27704 35.3088 6.25783 35.3292 6.26201 35.3289C6.26219 35.3289 6.26236 35.3288 6.26254 35.3288C6.30602 35.3222 6.48093 35.253 6.54067 35.2949ZM14.0793 34.3212C14.1278 34.3091 14.1764 34.297 14.225 34.2849C14.239 34.2969 14.253 34.3089 14.2669 34.3209C14.2668 34.3209 14.2667 34.3209 14.2666 34.3209C14.2041 34.321 14.1417 34.3211 14.0793 34.3212ZM12.3697 34.5596C12.3805 34.5488 12.3913 34.538 12.4022 34.5272C12.5255 34.5114 12.6493 34.4957 12.7735 34.48C12.7603 34.4762 12.7472 34.4723 12.734 34.4685C12.9204 34.4326 13.0025 34.4567 13.1026 34.4404C13.1025 34.4405 13.1023 34.4405 13.1022 34.4405C13.113 34.4387 13.1239 34.4176 13.1642 34.4124C13.2563 34.4003 13.5218 34.3631 13.5564 34.3792C13.6289 34.4135 13.0911 34.4539 12.9928 34.4673C12.948 34.4733 12.8961 34.4966 12.869 34.5001C12.8392 34.5039 12.7959 34.4855 12.7236 34.4946C12.7023 34.4972 12.4709 34.5517 12.3697 34.5596ZM10.1656 34.8022C10.2015 34.7761 10.285 34.7862 10.3143 34.7789C10.3213 34.7772 10.2637 34.7665 10.3301 34.7527C10.3506 34.7623 10.3711 34.772 10.3917 34.7816C10.3161 34.7885 10.2407 34.7953 10.1656 34.8022ZM33.2959 33.1487C33.2852 33.1532 33.0826 33.1523 33.0728 33.1495C32.9511 33.1111 33.371 33.1137 33.2959 33.1487ZM38.4379 33.3179C38.3473 33.3674 39.4432 33.3818 39.5579 33.3963C39.5546 33.3603 39.2843 33.3762 39.4273 33.3378C39.2953 33.3546 38.938 33.316 38.851 33.3186C38.7988 33.3199 38.7837 33.3498 38.7758 33.3502C38.7451 33.3516 38.4728 33.2998 38.4379 33.3179ZM40.4768 33.4507C40.3729 33.4476 40.2683 33.4447 40.163 33.4422C40.2862 33.4571 40.4084 33.4724 40.5294 33.4881C40.5119 33.4756 40.4944 33.4631 40.4768 33.4507ZM40.6047 33.4792C40.5924 33.5123 40.963 33.5235 41.056 33.5421C40.9571 33.4723 40.7636 33.5076 40.6047 33.4792ZM34.6488 33.2421C34.4842 33.2633 34.4141 33.1578 34.614 33.2053C34.62 33.2069 34.6556 33.241 34.6488 33.2421ZM15.3559 34.37C15.3279 34.3735 14.9801 34.444 14.9584 34.4294C14.8886 34.3827 15.1208 34.38 15.196 34.3517C15.3167 34.3061 15.1329 34.2979 15.4359 34.2865C15.4226 34.2771 15.4092 34.2676 15.3959 34.2582C15.5708 34.2365 15.5211 34.3166 15.5536 34.3229C15.5635 34.3248 15.6726 34.3074 15.693 34.3101C15.9467 34.3446 15.3812 34.3667 15.3559 34.37ZM30.5567 33.2838C30.2264 33.3237 30.3693 33.2736 30.033 33.2856C30.0218 33.2621 30.5105 33.264 30.5567 33.2838ZM18.5381 34.0206C18.1969 34.0417 17.9207 34.098 17.6014 34.0861C17.6151 34.02 18.6244 33.9958 18.5381 34.0206ZM2.7079 36.1438C3.98274 35.7858 5.49367 35.5767 6.88988 35.3713C7.04095 35.3491 7.05213 35.3218 7.10752 35.3164C7.14388 35.3129 7.14052 35.3341 7.1886 35.3271C8.91922 35.0771 10.5839 34.8885 12.2505 34.6791C12.3533 34.6659 12.8552 34.5633 12.9724 34.6167C13.0604 34.6571 12.69 34.6603 12.6296 34.6678C12.5841 34.6735 12.5849 34.6971 12.5545 34.7008C12.5223 34.7046 12.5471 34.6855 12.5096 34.6896C12.3503 34.7071 12.1827 34.7332 12.0341 34.7496C10.6146 34.9056 9.23897 35.0875 7.8424 35.2884C7.67729 35.3122 7.70978 35.3267 7.70242 35.3278C7.70229 35.3278 7.70217 35.3278 7.70205 35.3277C6.77712 35.4619 5.74408 35.5761 4.78321 35.7518C4.11237 35.8761 3.42412 36.0097 2.77119 36.1462C2.75004 36.1454 2.72894 36.1446 2.7079 36.1438ZM16.0683 34.2303C15.9904 34.3098 15.9638 34.2401 15.6626 34.3001C15.6367 34.2905 15.6107 34.2809 15.5848 34.2713C15.7457 34.2575 15.9071 34.2438 16.0688 34.2303C16.0687 34.2303 16.0685 34.2303 16.0683 34.2303ZM14.0545 34.4677C14.0164 34.5685 13.322 34.577 13.0164 34.6309C12.9542 34.5892 13.4048 34.5598 13.511 34.5429C13.5644 34.5344 13.8415 34.4534 14.0563 34.4576C14.0557 34.461 14.0551 34.4643 14.0545 34.4677ZM37.2711 33.403C37.2213 33.3982 37.1713 33.3935 37.1213 33.3887C37.2473 33.3829 37.3726 33.3773 37.4973 33.372C37.2988 33.3703 37.0986 33.3693 36.8966 33.3691C36.9335 33.3904 36.9703 33.4117 37.007 33.4331C37.0953 33.4229 37.1834 33.4129 37.2711 33.403ZM36.6182 33.3693C36.9743 33.3885 36.6001 33.3226 36.5184 33.344C36.4667 33.3567 36.5834 33.3674 36.6182 33.3693ZM35.7168 33.3799C35.8798 33.4183 36.2063 33.4291 36.0919 33.3561C35.9161 33.3845 35.8037 33.3545 35.5464 33.3683C35.5837 33.3825 35.6209 33.3967 35.6581 33.4109C35.6582 33.4109 35.6584 33.4109 35.6586 33.4109C35.678 33.4005 35.6974 33.3902 35.7168 33.3799ZM36.779 33.417C37.0107 33.3844 36.3449 33.3765 36.5524 33.4097C36.5599 33.411 36.7698 33.4182 36.779 33.417ZM4.15689 35.9563C4.12636 35.9383 4.29613 35.9096 4.35317 35.8984C4.59778 35.8498 4.92884 35.805 5.19149 35.7593C5.17348 35.7699 5.15637 35.7803 5.13754 35.791C4.80146 35.8461 4.47437 35.9012 4.15689 35.9563ZM5.99916 35.6311C6.17767 35.6033 6.37102 35.5737 6.54134 35.5479C6.55766 35.5455 6.63743 35.5533 6.58102 35.5666C6.39753 35.5861 6.19171 35.6094 5.99916 35.6311ZM17.2227 34.2555C17.0861 34.2813 17.489 34.3091 17.4647 34.2407C17.3839 34.2456 17.3033 34.2505 17.2227 34.2555ZM18.5131 34.1646C18.4253 34.1657 18.3376 34.1669 18.2499 34.1681C18.2506 34.1762 18.2512 34.1842 18.2518 34.1923C18.3388 34.183 18.4259 34.1738 18.5131 34.1646ZM3.4542 36.0962C3.54003 36.0526 3.76096 36.0176 3.90122 35.9926C3.80854 36.0329 3.57976 36.0614 3.4542 36.0962ZM15.1536 34.4905C15.1625 34.4705 14.6109 34.5336 14.8055 34.5464C14.9212 34.5277 15.0373 34.5091 15.1536 34.4905ZM14.0398 34.6379C14.1572 34.6292 14.2475 34.6129 14.2201 34.586C14.158 34.5941 14.096 34.6021 14.0341 34.6102C14.036 34.6194 14.0379 34.6287 14.0398 34.6379ZM35.0913 33.4252C34.8948 33.4197 34.6971 33.4148 34.498 33.4105C34.5053 33.4186 34.5126 33.4268 34.5199 33.435C34.7117 33.4392 34.9023 33.444 35.0916 33.4494C35.0915 33.4413 35.0914 33.4333 35.0913 33.4252ZM3.35613 36.1878C3.22101 36.2069 3.08791 36.226 2.95688 36.245C3.08605 36.2154 3.21736 36.1858 3.35073 36.1561C3.35265 36.1667 3.35457 36.1773 3.35649 36.1879C3.35637 36.1878 3.35625 36.1878 3.35613 36.1878ZM37.8194 33.6128C37.2189 33.6229 37.9768 33.6972 38.1445 33.6514C38.1447 33.6515 38.1449 33.6515 38.1451 33.6516C38.1596 33.6475 38.1306 33.6222 38.1549 33.6139C38.0916 33.6213 38.0264 33.6286 37.9666 33.6364C37.912 33.6203 37.8573 33.6042 37.8023 33.5883C37.7838 33.5926 37.7652 33.597 37.7466 33.6014C37.7709 33.6052 37.7952 33.609 37.8194 33.6128ZM40.2664 33.8009C40.8047 33.8473 40.2627 33.7352 39.9853 33.7591C39.9866 33.77 40.2169 33.7966 40.2664 33.8009ZM38.8299 33.6775C38.744 33.6666 38.6577 33.6559 38.5709 33.6453C38.5593 33.6514 38.5478 33.6575 38.5363 33.6636C38.6028 33.6743 38.6691 33.6851 38.7351 33.6959C38.7667 33.6898 38.7984 33.6836 38.8299 33.6775ZM35.9721 33.6601C35.8322 33.6643 35.6563 33.5844 36.1034 33.6152C36.103 33.6233 36.1026 33.6314 36.1021 33.6394C36.0844 33.6377 36.0323 33.6288 36.0294 33.6293C36.0212 33.6311 36.0302 33.6584 35.9721 33.6601ZM41.2557 34.1171C41.2707 34.1219 41.2697 34.2075 41.4389 34.1388C41.4862 34.1499 41.5333 34.1611 41.5801 34.1724C41.5947 34.1552 41.6093 34.1381 41.6239 34.121C41.4382 34.1125 41.4221 34.0726 41.4089 34.0702C41.3473 34.0592 41.3909 34.0841 41.3508 34.0797C41.2477 34.068 41.0103 34.0284 41.1123 34.096C41.1491 34.1202 41.2407 34.1122 41.2557 34.1171ZM40.8795 34.1243C40.9035 34.1197 40.8312 34.0869 40.8495 34.0817C40.8659 34.0771 41.0986 34.0767 41.0409 34.028C41.003 34.0257 40.965 34.0233 40.9269 34.0211C40.9128 34.0312 40.8987 34.0413 40.8846 34.0514C40.849 34.0369 40.8132 34.0224 40.7772 34.008C40.7118 34.0299 40.5748 34.0533 40.7306 34.0924C40.6728 34.084 40.6146 34.0758 40.5608 34.068C40.5336 34.0516 40.5063 34.0353 40.4789 34.0189C40.492 34.0411 40.505 34.0632 40.5179 34.0854C40.6311 34.0971 40.759 34.1108 40.8795 34.1243ZM42.6206 34.3435C42.6157 34.3318 42.6107 34.3201 42.6057 34.3084C42.8003 34.3589 43.1195 34.4225 42.9466 34.3241C42.6779 34.2724 42.4064 34.2246 42.1225 34.1789C42.1025 34.1843 42.0825 34.1897 42.0625 34.1951C42.2786 34.194 42.1945 34.3161 42.3809 34.3052C42.412 34.3034 42.3316 34.244 42.5168 34.3025C42.5084 34.3121 42.5 34.3217 42.4917 34.3314C42.5349 34.3353 42.5779 34.3394 42.6206 34.3435ZM44.3598 34.6721C44.0135 34.6044 44.383 34.7333 44.4508 34.7177C44.4507 34.7177 44.4506 34.7177 44.4505 34.7176C44.6421 34.6741 44.2661 34.6234 44.2412 34.618C44.2109 34.6101 44.1547 34.5304 43.963 34.5833C44.0986 34.612 44.2309 34.6416 44.3598 34.6721ZM43.2337 34.4482C43.2629 34.4557 43.2495 34.4367 43.2622 34.4393C43.2623 34.4393 43.2625 34.4394 43.2626 34.4394C43.4539 34.477 43.8755 34.5795 43.9326 34.5395C43.8065 34.5045 43.1977 34.3744 43.1484 34.4038C43.177 34.4186 43.2054 34.4334 43.2337 34.4482ZM41.9148 34.2007C41.7908 34.2183 42.0591 34.2588 42.1299 34.2533C42.1435 34.2518 42.0434 34.1825 41.9148 34.2007ZM32.889 33.8453C32.6285 33.8266 32.9705 33.8039 32.8518 33.7728C32.9016 33.7752 32.9513 33.7776 33.0009 33.78C32.9636 33.8018 32.9263 33.8235 32.889 33.8453ZM21.0169 34.4535C20.9565 34.462 20.9837 34.4403 20.9785 34.4404C20.9387 34.4441 20.9024 34.4628 20.887 34.4624C20.6022 34.4527 20.7886 34.4216 20.7912 34.4175C20.7956 34.3979 20.7196 34.3812 20.8207 34.3511C20.8837 34.353 20.9467 34.3549 21.0097 34.3569C21.0398 34.3438 21.07 34.3307 21.1002 34.3176C21.2261 34.3309 21.0641 34.3498 21.0481 34.3816C21.042 34.3941 21.1598 34.3993 21.0169 34.4535ZM32.4218 33.9137C32.379 33.8803 32.2742 33.8387 32.3763 33.8036C32.3764 33.8036 32.3765 33.8036 32.3766 33.8036C32.3955 33.7971 32.4725 33.7929 32.4961 33.784C32.665 33.8276 32.6009 33.8747 32.4218 33.9137ZM22.1424 34.4294C22.2425 34.4142 22.3427 34.3991 22.4428 34.384C22.4397 34.3639 22.4365 34.3437 22.4334 34.3236C22.3798 34.3329 22.3263 34.3422 22.2728 34.3516C22.2532 34.3437 22.2337 34.3358 22.2141 34.328C22.2793 34.3 22.3447 34.2721 22.41 34.2442C22.4912 34.2465 22.5725 34.2489 22.6537 34.2513C22.6174 34.2646 22.5811 34.2779 22.5448 34.2912C22.7428 34.2891 22.6964 34.2429 22.8583 34.2127C22.9155 34.2276 22.9727 34.2425 23.0298 34.2575C23.1095 34.2331 23.1891 34.2088 23.2688 34.1845C23.4053 34.1842 23.4182 34.1978 23.3282 34.2254C23.3974 34.2454 23.4688 34.2019 23.5509 34.2065C23.5577 34.2069 23.5465 34.2309 23.5525 34.2308C23.9741 34.2189 23.9485 34.1598 24.0155 34.1529C24.0629 34.1481 24.2552 34.1772 24.259 34.191C24.2638 34.2097 23.8744 34.3084 24.4916 34.2722C24.1759 34.343 23.8096 34.3141 24.0395 34.2237C23.9387 34.2375 23.4924 34.2477 23.4642 34.2519C23.4231 34.2581 23.4395 34.2857 23.3877 34.2899C23.3572 34.2924 23.2716 34.2323 23.0332 34.3059C23.0015 34.2973 22.9698 34.2887 22.9381 34.2801C22.9096 34.2909 22.8812 34.3018 22.8528 34.3126C22.9147 34.3399 22.9767 34.3673 23.0385 34.3946C22.7996 34.3766 22.6078 34.4547 22.4599 34.4108C22.3358 34.426 22.2758 34.4366 22.3312 34.4604C22.2939 34.4631 22.2565 34.4658 22.2191 34.4685C22.1935 34.4555 22.168 34.4424 22.1424 34.4294ZM31.6559 33.8755C31.5332 33.909 31.4876 33.8419 31.5067 33.8377C31.6147 33.8147 31.7198 33.8581 31.6559 33.8755ZM21.2388 34.4001C21.374 34.3721 21.5094 34.3443 21.6449 34.3166C21.6465 34.338 21.6481 34.3594 21.6497 34.3808C21.5127 34.3871 21.3757 34.3935 21.2388 34.4001ZM32.9273 33.8933C32.9397 33.8772 32.9522 33.861 32.9646 33.8448C33.1143 33.9027 33.2615 33.8179 33.3349 33.8352C33.3508 33.8389 33.3188 33.8674 33.2884 33.8736C33.2698 33.8774 32.954 33.8985 32.9273 33.8933ZM39.1371 34.0543C39.0835 34.0397 39.0297 34.0252 38.9757 34.0108C38.9775 34.0291 38.9793 34.0473 38.9811 34.0656C39.0079 34.0708 39.0346 34.076 39.0613 34.0812C39.0866 34.0722 39.1118 34.0632 39.1371 34.0543ZM38.5125 33.9854C38.4129 33.981 38.3128 33.9768 38.2122 33.9728C38.5935 34.0106 38.2798 34.0011 38.5094 34.0379C38.5104 34.0204 38.5114 34.0029 38.5125 33.9854ZM37.5091 33.9707C37.5207 33.982 37.5323 33.9933 37.5439 34.0047C37.6421 34.009 37.7398 34.0136 37.8371 34.0183C37.7738 34.0528 37.7104 34.0874 37.6468 34.122C37.611 34.1205 37.5752 34.1189 37.5392 34.1174C37.5292 34.0685 37.5191 34.0196 37.5091 33.9707ZM18.3397 34.76C18.2795 34.7661 18.0673 34.7525 18.0752 34.7397C18.1607 34.7169 18.2463 34.6943 18.332 34.6716C18.3344 34.693 18.3367 34.7144 18.3391 34.7358C18.3504 34.724 18.3617 34.7122 18.3731 34.7005C18.4233 34.704 18.4736 34.7076 18.5238 34.7112C18.5471 34.6902 18.5704 34.6692 18.5938 34.6483C18.6208 34.6674 18.6478 34.6866 18.6748 34.7057C18.4388 34.765 18.4438 34.7264 18.394 34.7313C18.3688 34.7337 18.3541 34.7484 18.3457 34.7559C18.3437 34.7573 18.3417 34.7586 18.3397 34.76ZM21.3436 34.5294C21.0594 34.5566 20.8924 34.5129 20.6905 34.5765C20.8142 34.465 21.6752 34.503 21.9703 34.3974C22.0028 34.4112 22.0352 34.4251 22.0677 34.439C21.9026 34.4366 21.7915 34.4783 21.7119 34.489C21.6487 34.4976 21.6541 34.4802 21.6493 34.4808C21.649 34.4808 21.6488 34.4808 21.6486 34.4808C21.5005 34.499 21.4558 34.5188 21.3436 34.5294ZM33.1385 33.9714C33.0626 33.9973 32.9291 33.9955 32.9273 33.9582C33.0016 33.9469 33.0758 33.9357 33.1499 33.9246C33.1347 33.9342 33.1515 33.967 33.1385 33.9714ZM37.39 34.07C37.3304 34.0796 37.1902 34.0633 37.2521 34.0335C37.2633 34.0282 37.4021 34.0566 37.3226 33.9951C37.4587 34.0016 37.4239 34.0644 37.39 34.07ZM26.2077 34.1391C26.2581 34.1376 26.3084 34.1361 26.3587 34.1346C26.3712 34.149 26.3837 34.1635 26.3962 34.1779C26.3334 34.165 26.2706 34.152 26.2077 34.1391ZM33.7816 33.9964C33.8493 33.9228 33.9643 33.9948 34.0905 33.9347C34.1371 33.9345 34.1836 33.9342 34.23 33.934C34.2301 33.934 34.2302 33.934 34.2303 33.934C34.2315 33.9542 34.2326 33.9743 34.2337 33.9944C34.0837 33.9948 33.933 33.9954 33.7816 33.9964ZM23.074 34.3639C23.1043 34.3525 23.1346 34.3411 23.1649 34.3296C23.2208 34.3368 23.2766 34.3439 23.3324 34.3511C23.3032 34.3609 23.2739 34.3707 23.2446 34.3805C23.1877 34.375 23.1308 34.3694 23.074 34.3639ZM34.5975 34.0072C34.4363 34.0149 34.3761 33.9504 34.5823 33.952C34.6692 33.9528 34.766 33.9992 34.5975 34.0072ZM15.2497 35.0369C15.3049 35.0256 15.3603 35.0143 15.4155 35.0031C15.4356 35.0146 15.4556 35.0261 15.4757 35.0375C15.402 35.0371 15.325 35.0371 15.2497 35.0369ZM38.1491 34.0988C38.1432 34.085 38.1373 34.0712 38.1314 34.0574C38.0815 34.0575 38.0293 34.0575 37.9814 34.0578C37.9929 34.0718 38.0038 34.0857 38.0161 34.0998C38.0605 34.0994 38.1048 34.0991 38.1491 34.0988ZM15.6212 34.9901C15.6649 34.983 15.7087 34.976 15.7525 34.9689C15.7827 34.9724 15.813 34.9759 15.8433 34.9794C15.8027 34.9901 15.7621 35.0007 15.7216 35.0114C15.6881 35.0043 15.6546 34.9972 15.6212 34.9901ZM36.1292 34.0279C36.0672 34.0424 35.8208 33.9859 36.0441 33.9785C36.1861 33.9739 36.1384 34.0256 36.1292 34.0279ZM36.4597 34.0533C36.2265 34.0774 36.4025 33.9253 36.6826 34.036C36.3977 34.0129 36.4744 34.0519 36.4597 34.0533ZM38.5344 34.2257C38.5404 34.226 38.5466 34.2038 38.5941 34.2058C38.765 34.2132 38.9879 34.2189 39.1072 34.2259C39.3895 34.2397 40.2976 34.3573 40.3967 34.3033C40.4193 34.2917 40.3742 34.2464 40.3831 34.2451C40.4092 34.2416 40.5526 34.2755 40.5287 34.2429C40.3862 34.2292 40.2421 34.216 40.0964 34.2033C40.1303 34.2277 40.164 34.252 40.1976 34.2764C39.8365 34.2329 39.9554 34.2451 39.8543 34.19C39.7906 34.2027 39.7268 34.2155 39.6627 34.2283C39.5293 34.1996 39.3859 34.1707 39.2582 34.1435C39.2872 34.1591 39.316 34.1746 39.3449 34.1902C39.1447 34.2006 39.201 34.1884 39.094 34.1483C39.0928 34.1617 39.0917 34.175 39.0905 34.1884C38.8994 34.1425 38.8581 34.1804 38.8156 34.1781C38.728 34.1735 38.6266 34.0072 38.277 34.146C38.1372 34.0622 38.1321 34.2169 38.0511 34.1339C37.8033 34.207 38.2697 34.1995 38.4866 34.2098C38.4867 34.2098 38.4868 34.2098 38.4869 34.2099C38.5033 34.2106 38.4765 34.2234 38.5344 34.2257ZM37.3059 34.0854C37.4491 34.1609 36.8718 34.1448 37.0667 34.0515C37.0954 34.0494 37.124 34.0472 37.1527 34.045C37.204 34.0584 37.2552 34.0719 37.3062 34.0854C37.3061 34.0854 37.306 34.0854 37.3059 34.0854ZM31.881 34.0739C31.349 34.0536 31.6507 34.0086 31.8314 34.045C31.8674 34.0523 31.8871 34.0626 31.881 34.0739ZM20.9413 34.6144C20.9328 34.6067 20.9244 34.5989 20.9159 34.5912C21.0958 34.5848 21.4405 34.526 21.44 34.5828C21.2737 34.5931 21.1074 34.6037 20.9413 34.6144ZM22.3643 34.5446C22.326 34.5507 22.1691 34.5701 22.1866 34.5477C22.2538 34.5278 22.3209 34.5079 22.3881 34.4881C22.4206 34.4952 22.4531 34.5023 22.4855 34.5093C22.4413 34.5157 22.3747 34.5429 22.3643 34.5446Z" fill="white"/>
<path d="M34.3837 6.12642C34.4216 5.82909 34.8522 5.82908 34.8901 6.12642L35.5032 10.9454C35.5178 11.0599 35.6074 11.1504 35.7217 11.1661L40.4297 11.8116C40.7238 11.8519 40.7238 12.277 40.4297 12.3173L35.7217 12.9628C35.6074 12.9785 35.5178 13.069 35.5032 13.1835L34.8901 18.0025C34.8522 18.2998 34.4216 18.2998 34.3837 18.0025L33.7706 13.1835C33.756 13.069 33.6664 12.9785 33.5521 12.9628L28.8441 12.3173C28.55 12.277 28.55 11.8519 28.8441 11.8116L33.5521 11.1661C33.6664 11.1504 33.756 11.0599 33.7706 10.9454L34.3837 6.12642Z" fill="white"/>
<path d="M38.7477 4.08174C38.7857 3.78458 39.216 3.78458 39.254 4.08174L39.4767 5.8251C39.4914 5.93959 39.581 6.03001 39.6954 6.04562L41.4404 6.28393C41.7346 6.32411 41.7346 6.74948 41.4404 6.78966L39.6954 7.02796C39.581 7.04358 39.4914 7.134 39.4767 7.24849L39.254 8.99184C39.216 9.28901 38.7857 9.28901 38.7477 8.99184L38.525 7.24849C38.5104 7.134 38.4207 7.04358 38.3064 7.02796L36.5613 6.78966C36.2671 6.74948 36.2671 6.32411 36.5613 6.28393L38.3064 6.04562C38.4207 6.03001 38.5104 5.93959 38.525 5.8251L38.7477 4.08174Z" fill="white"/>
<path d="M35.693 2.4609C35.7313 2.16418 36.1609 2.16418 36.1992 2.4609L36.2859 3.13281C36.3007 3.24728 36.3905 3.33759 36.5049 3.35305L37.2023 3.44731C37.497 3.48714 37.497 3.91331 37.2023 3.95314L36.5049 4.0474C36.3905 4.06286 36.3007 4.15317 36.2859 4.26764L36.1992 4.93955C36.1609 5.23628 35.7313 5.23628 35.693 4.93955L35.6062 4.26764C35.5915 4.15317 35.5017 4.06286 35.3873 4.0474L34.6899 3.95314C34.3952 3.91331 34.3952 3.48714 34.6899 3.44731L35.3873 3.35305C35.5017 3.33759 35.5915 3.24728 35.6062 3.13281L35.693 2.4609Z" fill="white"/>
</svg>
