<svg width="30" height="30" viewBox="0 0 30 30" fill="none" xmlns="http://www.w3.org/2000/svg">
<path d="M22.8953 6.47516C21.8721 5.44177 20.6552 4.62033 19.3142 4.05787C17.9732 3.49542 16.5344 3.20301 15.0802 3.19737H14.9958C12.047 3.19737 9.21898 4.36876 7.13388 6.45388C5.04876 8.53899 3.87737 11.367 3.87737 14.3158V20.3026C3.87737 20.9831 4.14768 21.6357 4.62886 22.1169C5.11005 22.5982 5.76267 22.8684 6.44315 22.8684H8.15368C8.83417 22.8684 9.48678 22.5982 9.96796 22.1169C10.4492 21.6357 10.7195 20.9831 10.7195 20.3026V16.0263C10.7195 15.3458 10.4492 14.6932 9.96796 14.212C9.48678 13.7308 8.83417 13.4605 8.15368 13.4605H5.62637C5.79132 11.6772 6.46115 9.9779 7.55738 8.56169C8.65359 7.14548 10.1308 6.07108 11.8158 5.46442C13.5008 4.85776 15.3239 4.74396 17.0713 5.13637C18.8186 5.52877 20.418 6.41113 21.6818 7.68002C23.2266 9.23264 24.1767 11.2786 24.3663 13.4605H21.8379C21.1574 13.4605 20.5048 13.7308 20.0236 14.212C19.5424 14.6932 19.2721 15.3458 19.2721 16.0263V20.3026C19.2721 20.9831 19.5424 21.6357 20.0236 22.1169C20.5048 22.5982 21.1574 22.8684 21.8379 22.8684H24.4037C24.4037 23.5489 24.1334 24.2015 23.6521 24.6827C23.171 25.1639 22.5184 25.4342 21.8379 25.4342H15.851C15.6242 25.4342 15.4067 25.5243 15.2463 25.6848C15.0859 25.8451 14.9958 26.0626 14.9958 26.2895C14.9958 26.5164 15.0859 26.7338 15.2463 26.8942C15.4067 27.0547 15.6242 27.1447 15.851 27.1447H21.8379C22.972 27.1447 24.0598 26.6943 24.8617 25.8922C25.6637 25.0903 26.1142 24.0026 26.1142 22.8684V14.3158C26.1198 12.8614 25.8383 11.4202 25.2859 10.0747C24.7336 8.72931 23.9212 7.50609 22.8953 6.47516ZM8.15368 15.1711C8.38051 15.1711 8.59805 15.2612 8.75844 15.4216C8.91883 15.5819 9.00894 15.7994 9.00894 16.0263V20.3026C9.00894 20.5295 8.91883 20.747 8.75844 20.9073C8.59805 21.0679 8.38051 21.1579 8.15368 21.1579H6.44315C6.21632 21.1579 5.99879 21.0679 5.83839 20.9073C5.678 20.747 5.58789 20.5295 5.58789 20.3026V15.1711H8.15368ZM21.8379 21.1579C21.611 21.1579 21.3936 21.0679 21.2332 20.9073C21.0727 20.747 20.9826 20.5295 20.9826 20.3026V16.0263C20.9826 15.7994 21.0727 15.5819 21.2332 15.4216C21.3936 15.2612 21.611 15.1711 21.8379 15.1711H24.4037V21.1579H21.8379Z" fill="currentColor"/>
</svg>
